G04 #@! TF.GenerationSoftware,KiCad,Pcbnew,(5.1.5-0-10_14)*
G04 #@! TF.CreationDate,2020-05-10T16:42:09+01:00*
G04 #@! TF.ProjectId,fft8051,66667438-3035-4312-9e6b-696361645f70,rev?*
G04 #@! TF.SameCoordinates,Original*
G04 #@! TF.FileFunction,Legend,Top*
G04 #@! TF.FilePolarity,Positive*
%FSLAX46Y46*%
G04 Gerber Fmt 4.6, Leading zero omitted, Abs format (unit mm)*
G04 Created by KiCad (PCBNEW (5.1.5-0-10_14)) date 2020-05-10 16:42:09*
%MOMM*%
%LPD*%
G04 APERTURE LIST*
%ADD10C,0.150000*%
%ADD11C,0.120000*%
%ADD12C,0.152400*%
G04 APERTURE END LIST*
D10*
X47558333Y-104335714D02*
X47939285Y-104335714D01*
X47701190Y-105002380D02*
X47701190Y-104145238D01*
X47748809Y-104050000D01*
X47844047Y-104002380D01*
X47939285Y-104002380D01*
X48129761Y-104335714D02*
X48510714Y-104335714D01*
X48272619Y-105002380D02*
X48272619Y-104145238D01*
X48320238Y-104050000D01*
X48415476Y-104002380D01*
X48510714Y-104002380D01*
X48701190Y-104335714D02*
X49082142Y-104335714D01*
X48844047Y-104002380D02*
X48844047Y-104859523D01*
X48891666Y-104954761D01*
X48986904Y-105002380D01*
X49082142Y-105002380D01*
X49558333Y-104430952D02*
X49463095Y-104383333D01*
X49415476Y-104335714D01*
X49367857Y-104240476D01*
X49367857Y-104192857D01*
X49415476Y-104097619D01*
X49463095Y-104050000D01*
X49558333Y-104002380D01*
X49748809Y-104002380D01*
X49844047Y-104050000D01*
X49891666Y-104097619D01*
X49939285Y-104192857D01*
X49939285Y-104240476D01*
X49891666Y-104335714D01*
X49844047Y-104383333D01*
X49748809Y-104430952D01*
X49558333Y-104430952D01*
X49463095Y-104478571D01*
X49415476Y-104526190D01*
X49367857Y-104621428D01*
X49367857Y-104811904D01*
X49415476Y-104907142D01*
X49463095Y-104954761D01*
X49558333Y-105002380D01*
X49748809Y-105002380D01*
X49844047Y-104954761D01*
X49891666Y-104907142D01*
X49939285Y-104811904D01*
X49939285Y-104621428D01*
X49891666Y-104526190D01*
X49844047Y-104478571D01*
X49748809Y-104430952D01*
X50558333Y-104002380D02*
X50653571Y-104002380D01*
X50748809Y-104050000D01*
X50796428Y-104097619D01*
X50844047Y-104192857D01*
X50891666Y-104383333D01*
X50891666Y-104621428D01*
X50844047Y-104811904D01*
X50796428Y-104907142D01*
X50748809Y-104954761D01*
X50653571Y-105002380D01*
X50558333Y-105002380D01*
X50463095Y-104954761D01*
X50415476Y-104907142D01*
X50367857Y-104811904D01*
X50320238Y-104621428D01*
X50320238Y-104383333D01*
X50367857Y-104192857D01*
X50415476Y-104097619D01*
X50463095Y-104050000D01*
X50558333Y-104002380D01*
X51796428Y-104002380D02*
X51320238Y-104002380D01*
X51272619Y-104478571D01*
X51320238Y-104430952D01*
X51415476Y-104383333D01*
X51653571Y-104383333D01*
X51748809Y-104430952D01*
X51796428Y-104478571D01*
X51844047Y-104573809D01*
X51844047Y-104811904D01*
X51796428Y-104907142D01*
X51748809Y-104954761D01*
X51653571Y-105002380D01*
X51415476Y-105002380D01*
X51320238Y-104954761D01*
X51272619Y-104907142D01*
X52796428Y-105002380D02*
X52225000Y-105002380D01*
X52510714Y-105002380D02*
X52510714Y-104002380D01*
X52415476Y-104145238D01*
X52320238Y-104240476D01*
X52225000Y-104288095D01*
X48296428Y-106927380D02*
X47963095Y-106451190D01*
X47725000Y-106927380D02*
X47725000Y-105927380D01*
X48105952Y-105927380D01*
X48201190Y-105975000D01*
X48248809Y-106022619D01*
X48296428Y-106117857D01*
X48296428Y-106260714D01*
X48248809Y-106355952D01*
X48201190Y-106403571D01*
X48105952Y-106451190D01*
X47725000Y-106451190D01*
X49105952Y-106879761D02*
X49010714Y-106927380D01*
X48820238Y-106927380D01*
X48725000Y-106879761D01*
X48677380Y-106784523D01*
X48677380Y-106403571D01*
X48725000Y-106308333D01*
X48820238Y-106260714D01*
X49010714Y-106260714D01*
X49105952Y-106308333D01*
X49153571Y-106403571D01*
X49153571Y-106498809D01*
X48677380Y-106594047D01*
X49486904Y-106260714D02*
X49725000Y-106927380D01*
X49963095Y-106260714D01*
X50296428Y-106641666D02*
X50772619Y-106641666D01*
X50201190Y-106927380D02*
X50534523Y-105927380D01*
X50867857Y-106927380D01*
D11*
X67600000Y-152600000D02*
X66400000Y-152600000D01*
X66400000Y-152600000D02*
X67600000Y-152600000D01*
X67600000Y-152600000D02*
X66400000Y-152600000D01*
X59600000Y-116600000D02*
X58400000Y-116600000D01*
X58400000Y-116600000D02*
X59600000Y-116600000D01*
X59600000Y-116600000D02*
X58400000Y-116600000D01*
X75600000Y-140600000D02*
X74400000Y-140600000D01*
X74400000Y-140600000D02*
X75600000Y-140600000D01*
X75600000Y-140600000D02*
X74400000Y-140600000D01*
X59600000Y-158600000D02*
X58400000Y-158600000D01*
X58400000Y-158600000D02*
X59600000Y-158600000D01*
X59600000Y-158600000D02*
X58400000Y-158600000D01*
X75600000Y-158600000D02*
X74400000Y-158600000D01*
X74400000Y-158600000D02*
X75600000Y-158600000D01*
X75600000Y-158600000D02*
X74400000Y-158600000D01*
X59600000Y-134600000D02*
X58400000Y-134600000D01*
X58400000Y-134600000D02*
X59600000Y-134600000D01*
X59600000Y-134600000D02*
X58400000Y-134600000D01*
X75600000Y-134600000D02*
X74400000Y-134600000D01*
X74400000Y-134600000D02*
X75600000Y-134600000D01*
X75600000Y-134600000D02*
X74400000Y-134600000D01*
X59600000Y-155600000D02*
X58400000Y-155600000D01*
X58400000Y-155600000D02*
X59600000Y-155600000D01*
X59600000Y-155600000D02*
X58400000Y-155600000D01*
X75600000Y-155600000D02*
X74400000Y-155600000D01*
X74400000Y-155600000D02*
X75600000Y-155600000D01*
X75600000Y-155600000D02*
X74400000Y-155600000D01*
X59600000Y-131600000D02*
X58400000Y-131600000D01*
X58400000Y-131600000D02*
X59600000Y-131600000D01*
X59600000Y-131600000D02*
X58400000Y-131600000D01*
X75600000Y-131600000D02*
X74400000Y-131600000D01*
X74400000Y-131600000D02*
X75600000Y-131600000D01*
X75600000Y-131600000D02*
X74400000Y-131600000D01*
X59600000Y-152600000D02*
X58400000Y-152600000D01*
X58400000Y-152600000D02*
X59600000Y-152600000D01*
X59600000Y-152600000D02*
X58400000Y-152600000D01*
X75600000Y-152600000D02*
X74400000Y-152600000D01*
X74400000Y-152600000D02*
X75600000Y-152600000D01*
X75600000Y-152600000D02*
X74400000Y-152600000D01*
X59600000Y-128600000D02*
X58400000Y-128600000D01*
X58400000Y-128600000D02*
X59600000Y-128600000D01*
X59600000Y-128600000D02*
X58400000Y-128600000D01*
X75600000Y-128600000D02*
X74400000Y-128600000D01*
X74400000Y-128600000D02*
X75600000Y-128600000D01*
X75600000Y-128600000D02*
X74400000Y-128600000D01*
X59600000Y-149600000D02*
X58400000Y-149600000D01*
X58400000Y-149600000D02*
X59600000Y-149600000D01*
X59600000Y-149600000D02*
X58400000Y-149600000D01*
X75600000Y-149600000D02*
X74400000Y-149600000D01*
X74400000Y-149600000D02*
X75600000Y-149600000D01*
X75600000Y-149600000D02*
X74400000Y-149600000D01*
X59600000Y-125600000D02*
X58400000Y-125600000D01*
X58400000Y-125600000D02*
X59600000Y-125600000D01*
X59600000Y-125600000D02*
X58400000Y-125600000D01*
X75600000Y-125600000D02*
X74400000Y-125600000D01*
X74400000Y-125600000D02*
X75600000Y-125600000D01*
X75600000Y-125600000D02*
X74400000Y-125600000D01*
X59600000Y-146600000D02*
X58400000Y-146600000D01*
X58400000Y-146600000D02*
X59600000Y-146600000D01*
X59600000Y-146600000D02*
X58400000Y-146600000D01*
X75600000Y-146600000D02*
X74400000Y-146600000D01*
X74400000Y-146600000D02*
X75600000Y-146600000D01*
X75600000Y-146600000D02*
X74400000Y-146600000D01*
X59600000Y-122600000D02*
X58400000Y-122600000D01*
X58400000Y-122600000D02*
X59600000Y-122600000D01*
X59600000Y-122600000D02*
X58400000Y-122600000D01*
X75600000Y-122600000D02*
X74400000Y-122600000D01*
X74400000Y-122600000D02*
X75600000Y-122600000D01*
X75600000Y-122600000D02*
X74400000Y-122600000D01*
X59600000Y-143600000D02*
X58400000Y-143600000D01*
X58400000Y-143600000D02*
X59600000Y-143600000D01*
X59600000Y-143600000D02*
X58400000Y-143600000D01*
X75600000Y-143600000D02*
X74400000Y-143600000D01*
X74400000Y-143600000D02*
X75600000Y-143600000D01*
X75600000Y-143600000D02*
X74400000Y-143600000D01*
X59600000Y-119600000D02*
X58400000Y-119600000D01*
X58400000Y-119600000D02*
X59600000Y-119600000D01*
X59600000Y-119600000D02*
X58400000Y-119600000D01*
X75600000Y-119600000D02*
X74400000Y-119600000D01*
X74400000Y-119600000D02*
X75600000Y-119600000D01*
X75600000Y-119600000D02*
X74400000Y-119600000D01*
X59600000Y-140600000D02*
X58400000Y-140600000D01*
X58400000Y-140600000D02*
X59600000Y-140600000D01*
X59600000Y-140600000D02*
X58400000Y-140600000D01*
X87600000Y-155600000D02*
X86400000Y-155600000D01*
X86400000Y-155600000D02*
X87600000Y-155600000D01*
X87600000Y-155600000D02*
X86400000Y-155600000D01*
X71600000Y-155600000D02*
X70400000Y-155600000D01*
X70400000Y-155600000D02*
X71600000Y-155600000D01*
X71600000Y-155600000D02*
X70400000Y-155600000D01*
X71600000Y-134600000D02*
X70400000Y-134600000D01*
X70400000Y-134600000D02*
X71600000Y-134600000D01*
X71600000Y-134600000D02*
X70400000Y-134600000D01*
X87600000Y-134600000D02*
X86400000Y-134600000D01*
X86400000Y-134600000D02*
X87600000Y-134600000D01*
X87600000Y-134600000D02*
X86400000Y-134600000D01*
X71600000Y-158600000D02*
X70400000Y-158600000D01*
X70400000Y-158600000D02*
X71600000Y-158600000D01*
X71600000Y-158600000D02*
X70400000Y-158600000D01*
X87600000Y-158600000D02*
X86400000Y-158600000D01*
X86400000Y-158600000D02*
X87600000Y-158600000D01*
X87600000Y-158600000D02*
X86400000Y-158600000D01*
X87600000Y-131600000D02*
X86400000Y-131600000D01*
X86400000Y-131600000D02*
X87600000Y-131600000D01*
X87600000Y-131600000D02*
X86400000Y-131600000D01*
X71600000Y-131600000D02*
X70400000Y-131600000D01*
X70400000Y-131600000D02*
X71600000Y-131600000D01*
X71600000Y-131600000D02*
X70400000Y-131600000D01*
X87600000Y-152600000D02*
X86400000Y-152600000D01*
X86400000Y-152600000D02*
X87600000Y-152600000D01*
X87600000Y-152600000D02*
X86400000Y-152600000D01*
X71600000Y-152600000D02*
X70400000Y-152600000D01*
X70400000Y-152600000D02*
X71600000Y-152600000D01*
X71600000Y-152600000D02*
X70400000Y-152600000D01*
X87600000Y-128600000D02*
X86400000Y-128600000D01*
X86400000Y-128600000D02*
X87600000Y-128600000D01*
X87600000Y-128600000D02*
X86400000Y-128600000D01*
X71600000Y-128600000D02*
X70400000Y-128600000D01*
X70400000Y-128600000D02*
X71600000Y-128600000D01*
X71600000Y-128600000D02*
X70400000Y-128600000D01*
X87600000Y-149600000D02*
X86400000Y-149600000D01*
X86400000Y-149600000D02*
X87600000Y-149600000D01*
X87600000Y-149600000D02*
X86400000Y-149600000D01*
X71600000Y-149600000D02*
X70400000Y-149600000D01*
X70400000Y-149600000D02*
X71600000Y-149600000D01*
X71600000Y-149600000D02*
X70400000Y-149600000D01*
X87600000Y-125600000D02*
X86400000Y-125600000D01*
X86400000Y-125600000D02*
X87600000Y-125600000D01*
X87600000Y-125600000D02*
X86400000Y-125600000D01*
X71600000Y-125600000D02*
X70400000Y-125600000D01*
X70400000Y-125600000D02*
X71600000Y-125600000D01*
X71600000Y-125600000D02*
X70400000Y-125600000D01*
X87600000Y-146600000D02*
X86400000Y-146600000D01*
X86400000Y-146600000D02*
X87600000Y-146600000D01*
X87600000Y-146600000D02*
X86400000Y-146600000D01*
X71600000Y-146600000D02*
X70400000Y-146600000D01*
X70400000Y-146600000D02*
X71600000Y-146600000D01*
X71600000Y-146600000D02*
X70400000Y-146600000D01*
X87600000Y-122600000D02*
X86400000Y-122600000D01*
X86400000Y-122600000D02*
X87600000Y-122600000D01*
X87600000Y-122600000D02*
X86400000Y-122600000D01*
X71600000Y-122600000D02*
X70400000Y-122600000D01*
X70400000Y-122600000D02*
X71600000Y-122600000D01*
X71600000Y-122600000D02*
X70400000Y-122600000D01*
X87600000Y-143600000D02*
X86400000Y-143600000D01*
X86400000Y-143600000D02*
X87600000Y-143600000D01*
X87600000Y-143600000D02*
X86400000Y-143600000D01*
X71600000Y-143600000D02*
X70400000Y-143600000D01*
X70400000Y-143600000D02*
X71600000Y-143600000D01*
X71600000Y-143600000D02*
X70400000Y-143600000D01*
X87600000Y-119600000D02*
X86400000Y-119600000D01*
X86400000Y-119600000D02*
X87600000Y-119600000D01*
X87600000Y-119600000D02*
X86400000Y-119600000D01*
X71600000Y-119600000D02*
X70400000Y-119600000D01*
X70400000Y-119600000D02*
X71600000Y-119600000D01*
X71600000Y-119600000D02*
X70400000Y-119600000D01*
X87600000Y-140600000D02*
X86400000Y-140600000D01*
X86400000Y-140600000D02*
X87600000Y-140600000D01*
X87600000Y-140600000D02*
X86400000Y-140600000D01*
X71600000Y-140600000D02*
X70400000Y-140600000D01*
X70400000Y-140600000D02*
X71600000Y-140600000D01*
X71600000Y-140600000D02*
X70400000Y-140600000D01*
X87600000Y-116600000D02*
X86400000Y-116600000D01*
X86400000Y-116600000D02*
X87600000Y-116600000D01*
X87600000Y-116600000D02*
X86400000Y-116600000D01*
X71600000Y-116600000D02*
X70400000Y-116600000D01*
X70400000Y-116600000D02*
X71600000Y-116600000D01*
X71600000Y-116600000D02*
X70400000Y-116600000D01*
X87600000Y-137600000D02*
X86400000Y-137600000D01*
X86400000Y-137600000D02*
X87600000Y-137600000D01*
X87600000Y-137600000D02*
X86400000Y-137600000D01*
X71600000Y-137600000D02*
X70400000Y-137600000D01*
X70400000Y-137600000D02*
X71600000Y-137600000D01*
X71600000Y-137600000D02*
X70400000Y-137600000D01*
X87600000Y-113600000D02*
X86400000Y-113600000D01*
X86400000Y-113600000D02*
X87600000Y-113600000D01*
X87600000Y-113600000D02*
X86400000Y-113600000D01*
X71600000Y-113600000D02*
X70400000Y-113600000D01*
X70400000Y-113600000D02*
X71600000Y-113600000D01*
X71600000Y-113600000D02*
X70400000Y-113600000D01*
X85600000Y-158600000D02*
X84400000Y-158600000D01*
X84400000Y-158600000D02*
X85600000Y-158600000D01*
X85600000Y-158600000D02*
X84400000Y-158600000D01*
X69600000Y-158600000D02*
X68400000Y-158600000D01*
X68400000Y-158600000D02*
X69600000Y-158600000D01*
X69600000Y-158600000D02*
X68400000Y-158600000D01*
X85600000Y-134600000D02*
X84400000Y-134600000D01*
X84400000Y-134600000D02*
X85600000Y-134600000D01*
X85600000Y-134600000D02*
X84400000Y-134600000D01*
X69600000Y-134600000D02*
X68400000Y-134600000D01*
X68400000Y-134600000D02*
X69600000Y-134600000D01*
X69600000Y-134600000D02*
X68400000Y-134600000D01*
X85600000Y-155600000D02*
X84400000Y-155600000D01*
X84400000Y-155600000D02*
X85600000Y-155600000D01*
X85600000Y-155600000D02*
X84400000Y-155600000D01*
X69600000Y-155600000D02*
X68400000Y-155600000D01*
X68400000Y-155600000D02*
X69600000Y-155600000D01*
X69600000Y-155600000D02*
X68400000Y-155600000D01*
X85600000Y-131600000D02*
X84400000Y-131600000D01*
X84400000Y-131600000D02*
X85600000Y-131600000D01*
X85600000Y-131600000D02*
X84400000Y-131600000D01*
X69600000Y-131600000D02*
X68400000Y-131600000D01*
X68400000Y-131600000D02*
X69600000Y-131600000D01*
X69600000Y-131600000D02*
X68400000Y-131600000D01*
X85600000Y-152600000D02*
X84400000Y-152600000D01*
X84400000Y-152600000D02*
X85600000Y-152600000D01*
X85600000Y-152600000D02*
X84400000Y-152600000D01*
X69600000Y-152600000D02*
X68400000Y-152600000D01*
X68400000Y-152600000D02*
X69600000Y-152600000D01*
X69600000Y-152600000D02*
X68400000Y-152600000D01*
X85600000Y-128600000D02*
X84400000Y-128600000D01*
X84400000Y-128600000D02*
X85600000Y-128600000D01*
X85600000Y-128600000D02*
X84400000Y-128600000D01*
X69600000Y-128600000D02*
X68400000Y-128600000D01*
X68400000Y-128600000D02*
X69600000Y-128600000D01*
X69600000Y-128600000D02*
X68400000Y-128600000D01*
X85600000Y-149600000D02*
X84400000Y-149600000D01*
X84400000Y-149600000D02*
X85600000Y-149600000D01*
X85600000Y-149600000D02*
X84400000Y-149600000D01*
X69600000Y-149600000D02*
X68400000Y-149600000D01*
X68400000Y-149600000D02*
X69600000Y-149600000D01*
X69600000Y-149600000D02*
X68400000Y-149600000D01*
X85600000Y-125600000D02*
X84400000Y-125600000D01*
X84400000Y-125600000D02*
X85600000Y-125600000D01*
X85600000Y-125600000D02*
X84400000Y-125600000D01*
X69600000Y-125600000D02*
X68400000Y-125600000D01*
X68400000Y-125600000D02*
X69600000Y-125600000D01*
X69600000Y-125600000D02*
X68400000Y-125600000D01*
X85600000Y-146600000D02*
X84400000Y-146600000D01*
X84400000Y-146600000D02*
X85600000Y-146600000D01*
X85600000Y-146600000D02*
X84400000Y-146600000D01*
X69600000Y-146600000D02*
X68400000Y-146600000D01*
X68400000Y-146600000D02*
X69600000Y-146600000D01*
X69600000Y-146600000D02*
X68400000Y-146600000D01*
X85600000Y-122600000D02*
X84400000Y-122600000D01*
X84400000Y-122600000D02*
X85600000Y-122600000D01*
X85600000Y-122600000D02*
X84400000Y-122600000D01*
X69600000Y-122600000D02*
X68400000Y-122600000D01*
X68400000Y-122600000D02*
X69600000Y-122600000D01*
X69600000Y-122600000D02*
X68400000Y-122600000D01*
X85600000Y-143600000D02*
X84400000Y-143600000D01*
X84400000Y-143600000D02*
X85600000Y-143600000D01*
X85600000Y-143600000D02*
X84400000Y-143600000D01*
X69600000Y-143600000D02*
X68400000Y-143600000D01*
X68400000Y-143600000D02*
X69600000Y-143600000D01*
X69600000Y-143600000D02*
X68400000Y-143600000D01*
X85600000Y-119600000D02*
X84400000Y-119600000D01*
X84400000Y-119600000D02*
X85600000Y-119600000D01*
X85600000Y-119600000D02*
X84400000Y-119600000D01*
X69600000Y-119600000D02*
X68400000Y-119600000D01*
X68400000Y-119600000D02*
X69600000Y-119600000D01*
X69600000Y-119600000D02*
X68400000Y-119600000D01*
X85600000Y-140600000D02*
X84400000Y-140600000D01*
X84400000Y-140600000D02*
X85600000Y-140600000D01*
X85600000Y-140600000D02*
X84400000Y-140600000D01*
X69600000Y-140600000D02*
X68400000Y-140600000D01*
X68400000Y-140600000D02*
X69600000Y-140600000D01*
X69600000Y-140600000D02*
X68400000Y-140600000D01*
X85600000Y-116600000D02*
X84400000Y-116600000D01*
X84400000Y-116600000D02*
X85600000Y-116600000D01*
X85600000Y-116600000D02*
X84400000Y-116600000D01*
X69600000Y-116600000D02*
X68400000Y-116600000D01*
X68400000Y-116600000D02*
X69600000Y-116600000D01*
X69600000Y-116600000D02*
X68400000Y-116600000D01*
X85600000Y-137600000D02*
X84400000Y-137600000D01*
X84400000Y-137600000D02*
X85600000Y-137600000D01*
X85600000Y-137600000D02*
X84400000Y-137600000D01*
X69600000Y-137600000D02*
X68400000Y-137600000D01*
X68400000Y-137600000D02*
X69600000Y-137600000D01*
X69600000Y-137600000D02*
X68400000Y-137600000D01*
X85600000Y-113600000D02*
X84400000Y-113600000D01*
X84400000Y-113600000D02*
X85600000Y-113600000D01*
X85600000Y-113600000D02*
X84400000Y-113600000D01*
X69600000Y-113600000D02*
X68400000Y-113600000D01*
X68400000Y-113600000D02*
X69600000Y-113600000D01*
X69600000Y-113600000D02*
X68400000Y-113600000D01*
X83600000Y-158600000D02*
X82400000Y-158600000D01*
X82400000Y-158600000D02*
X83600000Y-158600000D01*
X83600000Y-158600000D02*
X82400000Y-158600000D01*
X67600000Y-158600000D02*
X66400000Y-158600000D01*
X66400000Y-158600000D02*
X67600000Y-158600000D01*
X67600000Y-158600000D02*
X66400000Y-158600000D01*
X83600000Y-134600000D02*
X82400000Y-134600000D01*
X82400000Y-134600000D02*
X83600000Y-134600000D01*
X83600000Y-134600000D02*
X82400000Y-134600000D01*
X67600000Y-134600000D02*
X66400000Y-134600000D01*
X66400000Y-134600000D02*
X67600000Y-134600000D01*
X67600000Y-134600000D02*
X66400000Y-134600000D01*
X83600000Y-155600000D02*
X82400000Y-155600000D01*
X82400000Y-155600000D02*
X83600000Y-155600000D01*
X83600000Y-155600000D02*
X82400000Y-155600000D01*
X67600000Y-155600000D02*
X66400000Y-155600000D01*
X66400000Y-155600000D02*
X67600000Y-155600000D01*
X67600000Y-155600000D02*
X66400000Y-155600000D01*
X83600000Y-131600000D02*
X82400000Y-131600000D01*
X82400000Y-131600000D02*
X83600000Y-131600000D01*
X83600000Y-131600000D02*
X82400000Y-131600000D01*
X67600000Y-131600000D02*
X66400000Y-131600000D01*
X66400000Y-131600000D02*
X67600000Y-131600000D01*
X67600000Y-131600000D02*
X66400000Y-131600000D01*
X83600000Y-152600000D02*
X82400000Y-152600000D01*
X82400000Y-152600000D02*
X83600000Y-152600000D01*
X83600000Y-152600000D02*
X82400000Y-152600000D01*
X83600000Y-128600000D02*
X82400000Y-128600000D01*
X82400000Y-128600000D02*
X83600000Y-128600000D01*
X83600000Y-128600000D02*
X82400000Y-128600000D01*
X67600000Y-128600000D02*
X66400000Y-128600000D01*
X66400000Y-128600000D02*
X67600000Y-128600000D01*
X67600000Y-128600000D02*
X66400000Y-128600000D01*
X83600000Y-149600000D02*
X82400000Y-149600000D01*
X82400000Y-149600000D02*
X83600000Y-149600000D01*
X83600000Y-149600000D02*
X82400000Y-149600000D01*
X67600000Y-149600000D02*
X66400000Y-149600000D01*
X66400000Y-149600000D02*
X67600000Y-149600000D01*
X67600000Y-149600000D02*
X66400000Y-149600000D01*
X83600000Y-125600000D02*
X82400000Y-125600000D01*
X82400000Y-125600000D02*
X83600000Y-125600000D01*
X83600000Y-125600000D02*
X82400000Y-125600000D01*
X67600000Y-125600000D02*
X66400000Y-125600000D01*
X66400000Y-125600000D02*
X67600000Y-125600000D01*
X67600000Y-125600000D02*
X66400000Y-125600000D01*
X77600000Y-146600000D02*
X76400000Y-146600000D01*
X76400000Y-146600000D02*
X77600000Y-146600000D01*
X77600000Y-146600000D02*
X76400000Y-146600000D01*
X61600000Y-146600000D02*
X60400000Y-146600000D01*
X60400000Y-146600000D02*
X61600000Y-146600000D01*
X61600000Y-146600000D02*
X60400000Y-146600000D01*
X77600000Y-122600000D02*
X76400000Y-122600000D01*
X76400000Y-122600000D02*
X77600000Y-122600000D01*
X77600000Y-122600000D02*
X76400000Y-122600000D01*
X61600000Y-122600000D02*
X60400000Y-122600000D01*
X60400000Y-122600000D02*
X61600000Y-122600000D01*
X61600000Y-122600000D02*
X60400000Y-122600000D01*
X77600000Y-143600000D02*
X76400000Y-143600000D01*
X76400000Y-143600000D02*
X77600000Y-143600000D01*
X77600000Y-143600000D02*
X76400000Y-143600000D01*
X61600000Y-143600000D02*
X60400000Y-143600000D01*
X60400000Y-143600000D02*
X61600000Y-143600000D01*
X61600000Y-143600000D02*
X60400000Y-143600000D01*
X77600000Y-119600000D02*
X76400000Y-119600000D01*
X76400000Y-119600000D02*
X77600000Y-119600000D01*
X77600000Y-119600000D02*
X76400000Y-119600000D01*
X61600000Y-119600000D02*
X60400000Y-119600000D01*
X60400000Y-119600000D02*
X61600000Y-119600000D01*
X61600000Y-119600000D02*
X60400000Y-119600000D01*
X77600000Y-140600000D02*
X76400000Y-140600000D01*
X76400000Y-140600000D02*
X77600000Y-140600000D01*
X77600000Y-140600000D02*
X76400000Y-140600000D01*
X61600000Y-140600000D02*
X60400000Y-140600000D01*
X60400000Y-140600000D02*
X61600000Y-140600000D01*
X61600000Y-140600000D02*
X60400000Y-140600000D01*
X77600000Y-116600000D02*
X76400000Y-116600000D01*
X76400000Y-116600000D02*
X77600000Y-116600000D01*
X77600000Y-116600000D02*
X76400000Y-116600000D01*
X61600000Y-116600000D02*
X60400000Y-116600000D01*
X60400000Y-116600000D02*
X61600000Y-116600000D01*
X61600000Y-116600000D02*
X60400000Y-116600000D01*
X77600000Y-137600000D02*
X76400000Y-137600000D01*
X76400000Y-137600000D02*
X77600000Y-137600000D01*
X77600000Y-137600000D02*
X76400000Y-137600000D01*
X61600000Y-137600000D02*
X60400000Y-137600000D01*
X60400000Y-137600000D02*
X61600000Y-137600000D01*
X61600000Y-137600000D02*
X60400000Y-137600000D01*
X77600000Y-113600000D02*
X76400000Y-113600000D01*
X76400000Y-113600000D02*
X77600000Y-113600000D01*
X77600000Y-113600000D02*
X76400000Y-113600000D01*
X61600000Y-113600000D02*
X60400000Y-113600000D01*
X60400000Y-113600000D02*
X61600000Y-113600000D01*
X61600000Y-113600000D02*
X60400000Y-113600000D01*
X75600000Y-116600000D02*
X74400000Y-116600000D01*
X74400000Y-116600000D02*
X75600000Y-116600000D01*
X75600000Y-116600000D02*
X74400000Y-116600000D01*
X59600000Y-137600000D02*
X58400000Y-137600000D01*
X58400000Y-137600000D02*
X59600000Y-137600000D01*
X59600000Y-137600000D02*
X58400000Y-137600000D01*
X75600000Y-137600000D02*
X74400000Y-137600000D01*
X74400000Y-137600000D02*
X75600000Y-137600000D01*
X75600000Y-137600000D02*
X74400000Y-137600000D01*
X59600000Y-113600000D02*
X58400000Y-113600000D01*
X58400000Y-113600000D02*
X59600000Y-113600000D01*
X59600000Y-113600000D02*
X58400000Y-113600000D01*
X75600000Y-113600000D02*
X74400000Y-113600000D01*
X74400000Y-113600000D02*
X75600000Y-113600000D01*
X75600000Y-113600000D02*
X74400000Y-113600000D01*
X89600000Y-158600000D02*
X88400000Y-158600000D01*
X88400000Y-158600000D02*
X89600000Y-158600000D01*
X89600000Y-158600000D02*
X88400000Y-158600000D01*
X73600000Y-158600000D02*
X72400000Y-158600000D01*
X72400000Y-158600000D02*
X73600000Y-158600000D01*
X73600000Y-158600000D02*
X72400000Y-158600000D01*
X89600000Y-134600000D02*
X88400000Y-134600000D01*
X88400000Y-134600000D02*
X89600000Y-134600000D01*
X89600000Y-134600000D02*
X88400000Y-134600000D01*
X73600000Y-134600000D02*
X72400000Y-134600000D01*
X72400000Y-134600000D02*
X73600000Y-134600000D01*
X73600000Y-134600000D02*
X72400000Y-134600000D01*
X89600000Y-155600000D02*
X88400000Y-155600000D01*
X88400000Y-155600000D02*
X89600000Y-155600000D01*
X89600000Y-155600000D02*
X88400000Y-155600000D01*
X73600000Y-155600000D02*
X72400000Y-155600000D01*
X72400000Y-155600000D02*
X73600000Y-155600000D01*
X73600000Y-155600000D02*
X72400000Y-155600000D01*
X89600000Y-131600000D02*
X88400000Y-131600000D01*
X88400000Y-131600000D02*
X89600000Y-131600000D01*
X89600000Y-131600000D02*
X88400000Y-131600000D01*
X73600000Y-131600000D02*
X72400000Y-131600000D01*
X72400000Y-131600000D02*
X73600000Y-131600000D01*
X73600000Y-131600000D02*
X72400000Y-131600000D01*
X89600000Y-152600000D02*
X88400000Y-152600000D01*
X88400000Y-152600000D02*
X89600000Y-152600000D01*
X89600000Y-152600000D02*
X88400000Y-152600000D01*
X73600000Y-152600000D02*
X72400000Y-152600000D01*
X72400000Y-152600000D02*
X73600000Y-152600000D01*
X73600000Y-152600000D02*
X72400000Y-152600000D01*
X89600000Y-128600000D02*
X88400000Y-128600000D01*
X88400000Y-128600000D02*
X89600000Y-128600000D01*
X89600000Y-128600000D02*
X88400000Y-128600000D01*
X73600000Y-128600000D02*
X72400000Y-128600000D01*
X72400000Y-128600000D02*
X73600000Y-128600000D01*
X73600000Y-128600000D02*
X72400000Y-128600000D01*
X89600000Y-149600000D02*
X88400000Y-149600000D01*
X88400000Y-149600000D02*
X89600000Y-149600000D01*
X89600000Y-149600000D02*
X88400000Y-149600000D01*
X73600000Y-149600000D02*
X72400000Y-149600000D01*
X72400000Y-149600000D02*
X73600000Y-149600000D01*
X73600000Y-149600000D02*
X72400000Y-149600000D01*
X89600000Y-125600000D02*
X88400000Y-125600000D01*
X88400000Y-125600000D02*
X89600000Y-125600000D01*
X89600000Y-125600000D02*
X88400000Y-125600000D01*
X73600000Y-125600000D02*
X72400000Y-125600000D01*
X72400000Y-125600000D02*
X73600000Y-125600000D01*
X73600000Y-125600000D02*
X72400000Y-125600000D01*
X89600000Y-146600000D02*
X88400000Y-146600000D01*
X88400000Y-146600000D02*
X89600000Y-146600000D01*
X89600000Y-146600000D02*
X88400000Y-146600000D01*
X73600000Y-146600000D02*
X72400000Y-146600000D01*
X72400000Y-146600000D02*
X73600000Y-146600000D01*
X73600000Y-146600000D02*
X72400000Y-146600000D01*
X89600000Y-122600000D02*
X88400000Y-122600000D01*
X88400000Y-122600000D02*
X89600000Y-122600000D01*
X89600000Y-122600000D02*
X88400000Y-122600000D01*
X73600000Y-122600000D02*
X72400000Y-122600000D01*
X72400000Y-122600000D02*
X73600000Y-122600000D01*
X73600000Y-122600000D02*
X72400000Y-122600000D01*
X89600000Y-143600000D02*
X88400000Y-143600000D01*
X88400000Y-143600000D02*
X89600000Y-143600000D01*
X89600000Y-143600000D02*
X88400000Y-143600000D01*
X73600000Y-143600000D02*
X72400000Y-143600000D01*
X72400000Y-143600000D02*
X73600000Y-143600000D01*
X73600000Y-143600000D02*
X72400000Y-143600000D01*
X89600000Y-119600000D02*
X88400000Y-119600000D01*
X88400000Y-119600000D02*
X89600000Y-119600000D01*
X89600000Y-119600000D02*
X88400000Y-119600000D01*
X73600000Y-119600000D02*
X72400000Y-119600000D01*
X72400000Y-119600000D02*
X73600000Y-119600000D01*
X73600000Y-119600000D02*
X72400000Y-119600000D01*
X89600000Y-140600000D02*
X88400000Y-140600000D01*
X88400000Y-140600000D02*
X89600000Y-140600000D01*
X89600000Y-140600000D02*
X88400000Y-140600000D01*
X73600000Y-140600000D02*
X72400000Y-140600000D01*
X72400000Y-140600000D02*
X73600000Y-140600000D01*
X73600000Y-140600000D02*
X72400000Y-140600000D01*
X89600000Y-116600000D02*
X88400000Y-116600000D01*
X88400000Y-116600000D02*
X89600000Y-116600000D01*
X89600000Y-116600000D02*
X88400000Y-116600000D01*
X73600000Y-116600000D02*
X72400000Y-116600000D01*
X72400000Y-116600000D02*
X73600000Y-116600000D01*
X73600000Y-116600000D02*
X72400000Y-116600000D01*
X89600000Y-137600000D02*
X88400000Y-137600000D01*
X88400000Y-137600000D02*
X89600000Y-137600000D01*
X89600000Y-137600000D02*
X88400000Y-137600000D01*
X73600000Y-137600000D02*
X72400000Y-137600000D01*
X72400000Y-137600000D02*
X73600000Y-137600000D01*
X73600000Y-137600000D02*
X72400000Y-137600000D01*
X89600000Y-113600000D02*
X88400000Y-113600000D01*
X88400000Y-113600000D02*
X89600000Y-113600000D01*
X89600000Y-113600000D02*
X88400000Y-113600000D01*
X73600000Y-113600000D02*
X72400000Y-113600000D01*
X72400000Y-113600000D02*
X73600000Y-113600000D01*
X73600000Y-113600000D02*
X72400000Y-113600000D01*
X77600000Y-125600000D02*
X76400000Y-125600000D01*
X76400000Y-125600000D02*
X77600000Y-125600000D01*
X77600000Y-125600000D02*
X76400000Y-125600000D01*
X61600000Y-125600000D02*
X60400000Y-125600000D01*
X60400000Y-125600000D02*
X61600000Y-125600000D01*
X61600000Y-125600000D02*
X60400000Y-125600000D01*
X83600000Y-146600000D02*
X82400000Y-146600000D01*
X82400000Y-146600000D02*
X83600000Y-146600000D01*
X83600000Y-146600000D02*
X82400000Y-146600000D01*
X67600000Y-146600000D02*
X66400000Y-146600000D01*
X66400000Y-146600000D02*
X67600000Y-146600000D01*
X67600000Y-146600000D02*
X66400000Y-146600000D01*
X83600000Y-122600000D02*
X82400000Y-122600000D01*
X82400000Y-122600000D02*
X83600000Y-122600000D01*
X83600000Y-122600000D02*
X82400000Y-122600000D01*
X67600000Y-122600000D02*
X66400000Y-122600000D01*
X66400000Y-122600000D02*
X67600000Y-122600000D01*
X67600000Y-122600000D02*
X66400000Y-122600000D01*
X83600000Y-143600000D02*
X82400000Y-143600000D01*
X82400000Y-143600000D02*
X83600000Y-143600000D01*
X83600000Y-143600000D02*
X82400000Y-143600000D01*
X67600000Y-143600000D02*
X66400000Y-143600000D01*
X66400000Y-143600000D02*
X67600000Y-143600000D01*
X67600000Y-143600000D02*
X66400000Y-143600000D01*
X83600000Y-119600000D02*
X82400000Y-119600000D01*
X82400000Y-119600000D02*
X83600000Y-119600000D01*
X83600000Y-119600000D02*
X82400000Y-119600000D01*
X67600000Y-119600000D02*
X66400000Y-119600000D01*
X66400000Y-119600000D02*
X67600000Y-119600000D01*
X67600000Y-119600000D02*
X66400000Y-119600000D01*
X83600000Y-140600000D02*
X82400000Y-140600000D01*
X82400000Y-140600000D02*
X83600000Y-140600000D01*
X83600000Y-140600000D02*
X82400000Y-140600000D01*
X67600000Y-140600000D02*
X66400000Y-140600000D01*
X66400000Y-140600000D02*
X67600000Y-140600000D01*
X67600000Y-140600000D02*
X66400000Y-140600000D01*
X83600000Y-116600000D02*
X82400000Y-116600000D01*
X82400000Y-116600000D02*
X83600000Y-116600000D01*
X83600000Y-116600000D02*
X82400000Y-116600000D01*
X67600000Y-116600000D02*
X66400000Y-116600000D01*
X66400000Y-116600000D02*
X67600000Y-116600000D01*
X67600000Y-116600000D02*
X66400000Y-116600000D01*
X83600000Y-137600000D02*
X82400000Y-137600000D01*
X82400000Y-137600000D02*
X83600000Y-137600000D01*
X83600000Y-137600000D02*
X82400000Y-137600000D01*
X67600000Y-137600000D02*
X66400000Y-137600000D01*
X66400000Y-137600000D02*
X67600000Y-137600000D01*
X67600000Y-137600000D02*
X66400000Y-137600000D01*
X83600000Y-113600000D02*
X82400000Y-113600000D01*
X82400000Y-113600000D02*
X83600000Y-113600000D01*
X83600000Y-113600000D02*
X82400000Y-113600000D01*
X67600000Y-113600000D02*
X66400000Y-113600000D01*
X66400000Y-113600000D02*
X67600000Y-113600000D01*
X67600000Y-113600000D02*
X66400000Y-113600000D01*
X81600000Y-158600000D02*
X80400000Y-158600000D01*
X80400000Y-158600000D02*
X81600000Y-158600000D01*
X81600000Y-158600000D02*
X80400000Y-158600000D01*
X65600000Y-158600000D02*
X64400000Y-158600000D01*
X64400000Y-158600000D02*
X65600000Y-158600000D01*
X65600000Y-158600000D02*
X64400000Y-158600000D01*
X81600000Y-134600000D02*
X80400000Y-134600000D01*
X80400000Y-134600000D02*
X81600000Y-134600000D01*
X81600000Y-134600000D02*
X80400000Y-134600000D01*
X65600000Y-134600000D02*
X64400000Y-134600000D01*
X64400000Y-134600000D02*
X65600000Y-134600000D01*
X65600000Y-134600000D02*
X64400000Y-134600000D01*
X81600000Y-155600000D02*
X80400000Y-155600000D01*
X80400000Y-155600000D02*
X81600000Y-155600000D01*
X81600000Y-155600000D02*
X80400000Y-155600000D01*
X65600000Y-155600000D02*
X64400000Y-155600000D01*
X64400000Y-155600000D02*
X65600000Y-155600000D01*
X65600000Y-155600000D02*
X64400000Y-155600000D01*
X81600000Y-131600000D02*
X80400000Y-131600000D01*
X80400000Y-131600000D02*
X81600000Y-131600000D01*
X81600000Y-131600000D02*
X80400000Y-131600000D01*
X65600000Y-131600000D02*
X64400000Y-131600000D01*
X64400000Y-131600000D02*
X65600000Y-131600000D01*
X65600000Y-131600000D02*
X64400000Y-131600000D01*
X81600000Y-152600000D02*
X80400000Y-152600000D01*
X80400000Y-152600000D02*
X81600000Y-152600000D01*
X81600000Y-152600000D02*
X80400000Y-152600000D01*
X65600000Y-152600000D02*
X64400000Y-152600000D01*
X64400000Y-152600000D02*
X65600000Y-152600000D01*
X65600000Y-152600000D02*
X64400000Y-152600000D01*
X81600000Y-128600000D02*
X80400000Y-128600000D01*
X80400000Y-128600000D02*
X81600000Y-128600000D01*
X81600000Y-128600000D02*
X80400000Y-128600000D01*
X65600000Y-128600000D02*
X64400000Y-128600000D01*
X64400000Y-128600000D02*
X65600000Y-128600000D01*
X65600000Y-128600000D02*
X64400000Y-128600000D01*
X81600000Y-149600000D02*
X80400000Y-149600000D01*
X80400000Y-149600000D02*
X81600000Y-149600000D01*
X81600000Y-149600000D02*
X80400000Y-149600000D01*
X65600000Y-149600000D02*
X64400000Y-149600000D01*
X64400000Y-149600000D02*
X65600000Y-149600000D01*
X65600000Y-149600000D02*
X64400000Y-149600000D01*
X81600000Y-125600000D02*
X80400000Y-125600000D01*
X80400000Y-125600000D02*
X81600000Y-125600000D01*
X81600000Y-125600000D02*
X80400000Y-125600000D01*
X65600000Y-125600000D02*
X64400000Y-125600000D01*
X64400000Y-125600000D02*
X65600000Y-125600000D01*
X65600000Y-125600000D02*
X64400000Y-125600000D01*
X81600000Y-146600000D02*
X80400000Y-146600000D01*
X80400000Y-146600000D02*
X81600000Y-146600000D01*
X81600000Y-146600000D02*
X80400000Y-146600000D01*
X65600000Y-146600000D02*
X64400000Y-146600000D01*
X64400000Y-146600000D02*
X65600000Y-146600000D01*
X65600000Y-146600000D02*
X64400000Y-146600000D01*
X81600000Y-122600000D02*
X80400000Y-122600000D01*
X80400000Y-122600000D02*
X81600000Y-122600000D01*
X81600000Y-122600000D02*
X80400000Y-122600000D01*
X65600000Y-122600000D02*
X64400000Y-122600000D01*
X64400000Y-122600000D02*
X65600000Y-122600000D01*
X65600000Y-122600000D02*
X64400000Y-122600000D01*
X81600000Y-143600000D02*
X80400000Y-143600000D01*
X80400000Y-143600000D02*
X81600000Y-143600000D01*
X81600000Y-143600000D02*
X80400000Y-143600000D01*
X65600000Y-143600000D02*
X64400000Y-143600000D01*
X64400000Y-143600000D02*
X65600000Y-143600000D01*
X65600000Y-143600000D02*
X64400000Y-143600000D01*
X81600000Y-119600000D02*
X80400000Y-119600000D01*
X80400000Y-119600000D02*
X81600000Y-119600000D01*
X81600000Y-119600000D02*
X80400000Y-119600000D01*
X65600000Y-119600000D02*
X64400000Y-119600000D01*
X64400000Y-119600000D02*
X65600000Y-119600000D01*
X65600000Y-119600000D02*
X64400000Y-119600000D01*
X81600000Y-140600000D02*
X80400000Y-140600000D01*
X80400000Y-140600000D02*
X81600000Y-140600000D01*
X81600000Y-140600000D02*
X80400000Y-140600000D01*
X65600000Y-140600000D02*
X64400000Y-140600000D01*
X64400000Y-140600000D02*
X65600000Y-140600000D01*
X65600000Y-140600000D02*
X64400000Y-140600000D01*
X81600000Y-116600000D02*
X80400000Y-116600000D01*
X80400000Y-116600000D02*
X81600000Y-116600000D01*
X81600000Y-116600000D02*
X80400000Y-116600000D01*
X65600000Y-116600000D02*
X64400000Y-116600000D01*
X64400000Y-116600000D02*
X65600000Y-116600000D01*
X65600000Y-116600000D02*
X64400000Y-116600000D01*
X81600000Y-137600000D02*
X80400000Y-137600000D01*
X80400000Y-137600000D02*
X81600000Y-137600000D01*
X81600000Y-137600000D02*
X80400000Y-137600000D01*
X65600000Y-137600000D02*
X64400000Y-137600000D01*
X64400000Y-137600000D02*
X65600000Y-137600000D01*
X65600000Y-137600000D02*
X64400000Y-137600000D01*
X81600000Y-113600000D02*
X80400000Y-113600000D01*
X80400000Y-113600000D02*
X81600000Y-113600000D01*
X81600000Y-113600000D02*
X80400000Y-113600000D01*
X65600000Y-113600000D02*
X64400000Y-113600000D01*
X64400000Y-113600000D02*
X65600000Y-113600000D01*
X65600000Y-113600000D02*
X64400000Y-113600000D01*
X79600000Y-158600000D02*
X78400000Y-158600000D01*
X78400000Y-158600000D02*
X79600000Y-158600000D01*
X79600000Y-158600000D02*
X78400000Y-158600000D01*
X63600000Y-158600000D02*
X62400000Y-158600000D01*
X62400000Y-158600000D02*
X63600000Y-158600000D01*
X63600000Y-158600000D02*
X62400000Y-158600000D01*
X79600000Y-134600000D02*
X78400000Y-134600000D01*
X78400000Y-134600000D02*
X79600000Y-134600000D01*
X79600000Y-134600000D02*
X78400000Y-134600000D01*
X63600000Y-134600000D02*
X62400000Y-134600000D01*
X62400000Y-134600000D02*
X63600000Y-134600000D01*
X63600000Y-134600000D02*
X62400000Y-134600000D01*
X79600000Y-155600000D02*
X78400000Y-155600000D01*
X78400000Y-155600000D02*
X79600000Y-155600000D01*
X79600000Y-155600000D02*
X78400000Y-155600000D01*
X63600000Y-155600000D02*
X62400000Y-155600000D01*
X62400000Y-155600000D02*
X63600000Y-155600000D01*
X63600000Y-155600000D02*
X62400000Y-155600000D01*
X79600000Y-131600000D02*
X78400000Y-131600000D01*
X78400000Y-131600000D02*
X79600000Y-131600000D01*
X79600000Y-131600000D02*
X78400000Y-131600000D01*
X63600000Y-131600000D02*
X62400000Y-131600000D01*
X62400000Y-131600000D02*
X63600000Y-131600000D01*
X63600000Y-131600000D02*
X62400000Y-131600000D01*
X79600000Y-152600000D02*
X78400000Y-152600000D01*
X78400000Y-152600000D02*
X79600000Y-152600000D01*
X79600000Y-152600000D02*
X78400000Y-152600000D01*
X63600000Y-152600000D02*
X62400000Y-152600000D01*
X62400000Y-152600000D02*
X63600000Y-152600000D01*
X63600000Y-152600000D02*
X62400000Y-152600000D01*
X79600000Y-128600000D02*
X78400000Y-128600000D01*
X78400000Y-128600000D02*
X79600000Y-128600000D01*
X79600000Y-128600000D02*
X78400000Y-128600000D01*
X63600000Y-128600000D02*
X62400000Y-128600000D01*
X62400000Y-128600000D02*
X63600000Y-128600000D01*
X63600000Y-128600000D02*
X62400000Y-128600000D01*
X79600000Y-149600000D02*
X78400000Y-149600000D01*
X78400000Y-149600000D02*
X79600000Y-149600000D01*
X79600000Y-149600000D02*
X78400000Y-149600000D01*
X63600000Y-149600000D02*
X62400000Y-149600000D01*
X62400000Y-149600000D02*
X63600000Y-149600000D01*
X63600000Y-149600000D02*
X62400000Y-149600000D01*
X79600000Y-125600000D02*
X78400000Y-125600000D01*
X78400000Y-125600000D02*
X79600000Y-125600000D01*
X79600000Y-125600000D02*
X78400000Y-125600000D01*
X63600000Y-125600000D02*
X62400000Y-125600000D01*
X62400000Y-125600000D02*
X63600000Y-125600000D01*
X63600000Y-125600000D02*
X62400000Y-125600000D01*
X79600000Y-146600000D02*
X78400000Y-146600000D01*
X78400000Y-146600000D02*
X79600000Y-146600000D01*
X79600000Y-146600000D02*
X78400000Y-146600000D01*
X63600000Y-146600000D02*
X62400000Y-146600000D01*
X62400000Y-146600000D02*
X63600000Y-146600000D01*
X63600000Y-146600000D02*
X62400000Y-146600000D01*
X79600000Y-122600000D02*
X78400000Y-122600000D01*
X78400000Y-122600000D02*
X79600000Y-122600000D01*
X79600000Y-122600000D02*
X78400000Y-122600000D01*
X63600000Y-122600000D02*
X62400000Y-122600000D01*
X62400000Y-122600000D02*
X63600000Y-122600000D01*
X63600000Y-122600000D02*
X62400000Y-122600000D01*
X79600000Y-143600000D02*
X78400000Y-143600000D01*
X78400000Y-143600000D02*
X79600000Y-143600000D01*
X79600000Y-143600000D02*
X78400000Y-143600000D01*
X63600000Y-143600000D02*
X62400000Y-143600000D01*
X62400000Y-143600000D02*
X63600000Y-143600000D01*
X63600000Y-143600000D02*
X62400000Y-143600000D01*
X79600000Y-119600000D02*
X78400000Y-119600000D01*
X78400000Y-119600000D02*
X79600000Y-119600000D01*
X79600000Y-119600000D02*
X78400000Y-119600000D01*
X63600000Y-119600000D02*
X62400000Y-119600000D01*
X62400000Y-119600000D02*
X63600000Y-119600000D01*
X63600000Y-119600000D02*
X62400000Y-119600000D01*
X79600000Y-140600000D02*
X78400000Y-140600000D01*
X78400000Y-140600000D02*
X79600000Y-140600000D01*
X79600000Y-140600000D02*
X78400000Y-140600000D01*
X63600000Y-140600000D02*
X62400000Y-140600000D01*
X62400000Y-140600000D02*
X63600000Y-140600000D01*
X63600000Y-140600000D02*
X62400000Y-140600000D01*
X79600000Y-116600000D02*
X78400000Y-116600000D01*
X78400000Y-116600000D02*
X79600000Y-116600000D01*
X79600000Y-116600000D02*
X78400000Y-116600000D01*
X63600000Y-116600000D02*
X62400000Y-116600000D01*
X62400000Y-116600000D02*
X63600000Y-116600000D01*
X63600000Y-116600000D02*
X62400000Y-116600000D01*
X79600000Y-137600000D02*
X78400000Y-137600000D01*
X78400000Y-137600000D02*
X79600000Y-137600000D01*
X79600000Y-137600000D02*
X78400000Y-137600000D01*
X63600000Y-137600000D02*
X62400000Y-137600000D01*
X62400000Y-137600000D02*
X63600000Y-137600000D01*
X63600000Y-137600000D02*
X62400000Y-137600000D01*
X79600000Y-113600000D02*
X78400000Y-113600000D01*
X78400000Y-113600000D02*
X79600000Y-113600000D01*
X79600000Y-113600000D02*
X78400000Y-113600000D01*
X63600000Y-113600000D02*
X62400000Y-113600000D01*
X62400000Y-113600000D02*
X63600000Y-113600000D01*
X63600000Y-113600000D02*
X62400000Y-113600000D01*
X77600000Y-158600000D02*
X76400000Y-158600000D01*
X76400000Y-158600000D02*
X77600000Y-158600000D01*
X77600000Y-158600000D02*
X76400000Y-158600000D01*
X61600000Y-158600000D02*
X60400000Y-158600000D01*
X60400000Y-158600000D02*
X61600000Y-158600000D01*
X61600000Y-158600000D02*
X60400000Y-158600000D01*
X77600000Y-134600000D02*
X76400000Y-134600000D01*
X76400000Y-134600000D02*
X77600000Y-134600000D01*
X77600000Y-134600000D02*
X76400000Y-134600000D01*
X61600000Y-134600000D02*
X60400000Y-134600000D01*
X60400000Y-134600000D02*
X61600000Y-134600000D01*
X61600000Y-134600000D02*
X60400000Y-134600000D01*
X77600000Y-155600000D02*
X76400000Y-155600000D01*
X76400000Y-155600000D02*
X77600000Y-155600000D01*
X77600000Y-155600000D02*
X76400000Y-155600000D01*
X61600000Y-155600000D02*
X60400000Y-155600000D01*
X60400000Y-155600000D02*
X61600000Y-155600000D01*
X61600000Y-155600000D02*
X60400000Y-155600000D01*
X77600000Y-131600000D02*
X76400000Y-131600000D01*
X76400000Y-131600000D02*
X77600000Y-131600000D01*
X77600000Y-131600000D02*
X76400000Y-131600000D01*
X61600000Y-131600000D02*
X60400000Y-131600000D01*
X60400000Y-131600000D02*
X61600000Y-131600000D01*
X61600000Y-131600000D02*
X60400000Y-131600000D01*
X77600000Y-152600000D02*
X76400000Y-152600000D01*
X76400000Y-152600000D02*
X77600000Y-152600000D01*
X77600000Y-152600000D02*
X76400000Y-152600000D01*
X61600000Y-152600000D02*
X60400000Y-152600000D01*
X60400000Y-152600000D02*
X61600000Y-152600000D01*
X61600000Y-152600000D02*
X60400000Y-152600000D01*
X77600000Y-128600000D02*
X76400000Y-128600000D01*
X76400000Y-128600000D02*
X77600000Y-128600000D01*
X77600000Y-128600000D02*
X76400000Y-128600000D01*
X61600000Y-128600000D02*
X60400000Y-128600000D01*
X60400000Y-128600000D02*
X61600000Y-128600000D01*
X61600000Y-128600000D02*
X60400000Y-128600000D01*
X77600000Y-149600000D02*
X76400000Y-149600000D01*
X76400000Y-149600000D02*
X77600000Y-149600000D01*
X77600000Y-149600000D02*
X76400000Y-149600000D01*
X61600000Y-149600000D02*
X60400000Y-149600000D01*
X60400000Y-149600000D02*
X61600000Y-149600000D01*
X61600000Y-149600000D02*
X60400000Y-149600000D01*
X91600000Y-140600000D02*
X90400000Y-140600000D01*
X90400000Y-140600000D02*
X91600000Y-140600000D01*
X91600000Y-140600000D02*
X90400000Y-140600000D01*
X91600000Y-158600000D02*
X90400000Y-158600000D01*
X90400000Y-158600000D02*
X91600000Y-158600000D01*
X91600000Y-158600000D02*
X90400000Y-158600000D01*
X91600000Y-134600000D02*
X90400000Y-134600000D01*
X90400000Y-134600000D02*
X91600000Y-134600000D01*
X91600000Y-134600000D02*
X90400000Y-134600000D01*
X91600000Y-155600000D02*
X90400000Y-155600000D01*
X90400000Y-155600000D02*
X91600000Y-155600000D01*
X91600000Y-155600000D02*
X90400000Y-155600000D01*
X91600000Y-131600000D02*
X90400000Y-131600000D01*
X90400000Y-131600000D02*
X91600000Y-131600000D01*
X91600000Y-131600000D02*
X90400000Y-131600000D01*
X91600000Y-152600000D02*
X90400000Y-152600000D01*
X90400000Y-152600000D02*
X91600000Y-152600000D01*
X91600000Y-152600000D02*
X90400000Y-152600000D01*
X91600000Y-128600000D02*
X90400000Y-128600000D01*
X90400000Y-128600000D02*
X91600000Y-128600000D01*
X91600000Y-128600000D02*
X90400000Y-128600000D01*
X91600000Y-149600000D02*
X90400000Y-149600000D01*
X90400000Y-149600000D02*
X91600000Y-149600000D01*
X91600000Y-149600000D02*
X90400000Y-149600000D01*
X91600000Y-125600000D02*
X90400000Y-125600000D01*
X90400000Y-125600000D02*
X91600000Y-125600000D01*
X91600000Y-125600000D02*
X90400000Y-125600000D01*
X91600000Y-146600000D02*
X90400000Y-146600000D01*
X90400000Y-146600000D02*
X91600000Y-146600000D01*
X91600000Y-146600000D02*
X90400000Y-146600000D01*
X91600000Y-122600000D02*
X90400000Y-122600000D01*
X90400000Y-122600000D02*
X91600000Y-122600000D01*
X91600000Y-122600000D02*
X90400000Y-122600000D01*
X91600000Y-143600000D02*
X90400000Y-143600000D01*
X90400000Y-143600000D02*
X91600000Y-143600000D01*
X91600000Y-143600000D02*
X90400000Y-143600000D01*
X91600000Y-119600000D02*
X90400000Y-119600000D01*
X90400000Y-119600000D02*
X91600000Y-119600000D01*
X91600000Y-119600000D02*
X90400000Y-119600000D01*
X99600000Y-158600000D02*
X98400000Y-158600000D01*
X98400000Y-158600000D02*
X99600000Y-158600000D01*
X99600000Y-158600000D02*
X98400000Y-158600000D01*
X99600000Y-134600000D02*
X98400000Y-134600000D01*
X98400000Y-134600000D02*
X99600000Y-134600000D01*
X99600000Y-134600000D02*
X98400000Y-134600000D01*
X99600000Y-155600000D02*
X98400000Y-155600000D01*
X98400000Y-155600000D02*
X99600000Y-155600000D01*
X99600000Y-155600000D02*
X98400000Y-155600000D01*
X99600000Y-131600000D02*
X98400000Y-131600000D01*
X98400000Y-131600000D02*
X99600000Y-131600000D01*
X99600000Y-131600000D02*
X98400000Y-131600000D01*
X99600000Y-152600000D02*
X98400000Y-152600000D01*
X98400000Y-152600000D02*
X99600000Y-152600000D01*
X99600000Y-152600000D02*
X98400000Y-152600000D01*
X99600000Y-128600000D02*
X98400000Y-128600000D01*
X98400000Y-128600000D02*
X99600000Y-128600000D01*
X99600000Y-128600000D02*
X98400000Y-128600000D01*
X99600000Y-149600000D02*
X98400000Y-149600000D01*
X98400000Y-149600000D02*
X99600000Y-149600000D01*
X99600000Y-149600000D02*
X98400000Y-149600000D01*
X99600000Y-125600000D02*
X98400000Y-125600000D01*
X98400000Y-125600000D02*
X99600000Y-125600000D01*
X99600000Y-125600000D02*
X98400000Y-125600000D01*
X99600000Y-146600000D02*
X98400000Y-146600000D01*
X98400000Y-146600000D02*
X99600000Y-146600000D01*
X99600000Y-146600000D02*
X98400000Y-146600000D01*
X93600000Y-146600000D02*
X92400000Y-146600000D01*
X92400000Y-146600000D02*
X93600000Y-146600000D01*
X93600000Y-146600000D02*
X92400000Y-146600000D01*
X93600000Y-122600000D02*
X92400000Y-122600000D01*
X92400000Y-122600000D02*
X93600000Y-122600000D01*
X93600000Y-122600000D02*
X92400000Y-122600000D01*
X93600000Y-143600000D02*
X92400000Y-143600000D01*
X92400000Y-143600000D02*
X93600000Y-143600000D01*
X93600000Y-143600000D02*
X92400000Y-143600000D01*
X93600000Y-119600000D02*
X92400000Y-119600000D01*
X92400000Y-119600000D02*
X93600000Y-119600000D01*
X93600000Y-119600000D02*
X92400000Y-119600000D01*
X93600000Y-140600000D02*
X92400000Y-140600000D01*
X92400000Y-140600000D02*
X93600000Y-140600000D01*
X93600000Y-140600000D02*
X92400000Y-140600000D01*
X93600000Y-116600000D02*
X92400000Y-116600000D01*
X92400000Y-116600000D02*
X93600000Y-116600000D01*
X93600000Y-116600000D02*
X92400000Y-116600000D01*
X93600000Y-137600000D02*
X92400000Y-137600000D01*
X92400000Y-137600000D02*
X93600000Y-137600000D01*
X93600000Y-137600000D02*
X92400000Y-137600000D01*
X93600000Y-113600000D02*
X92400000Y-113600000D01*
X92400000Y-113600000D02*
X93600000Y-113600000D01*
X93600000Y-113600000D02*
X92400000Y-113600000D01*
X91600000Y-116600000D02*
X90400000Y-116600000D01*
X90400000Y-116600000D02*
X91600000Y-116600000D01*
X91600000Y-116600000D02*
X90400000Y-116600000D01*
X91600000Y-137600000D02*
X90400000Y-137600000D01*
X90400000Y-137600000D02*
X91600000Y-137600000D01*
X91600000Y-137600000D02*
X90400000Y-137600000D01*
X91600000Y-113600000D02*
X90400000Y-113600000D01*
X90400000Y-113600000D02*
X91600000Y-113600000D01*
X91600000Y-113600000D02*
X90400000Y-113600000D01*
X93600000Y-125600000D02*
X92400000Y-125600000D01*
X92400000Y-125600000D02*
X93600000Y-125600000D01*
X93600000Y-125600000D02*
X92400000Y-125600000D01*
X99600000Y-122600000D02*
X98400000Y-122600000D01*
X98400000Y-122600000D02*
X99600000Y-122600000D01*
X99600000Y-122600000D02*
X98400000Y-122600000D01*
X99600000Y-143600000D02*
X98400000Y-143600000D01*
X98400000Y-143600000D02*
X99600000Y-143600000D01*
X99600000Y-143600000D02*
X98400000Y-143600000D01*
X99600000Y-119600000D02*
X98400000Y-119600000D01*
X98400000Y-119600000D02*
X99600000Y-119600000D01*
X99600000Y-119600000D02*
X98400000Y-119600000D01*
X99600000Y-140600000D02*
X98400000Y-140600000D01*
X98400000Y-140600000D02*
X99600000Y-140600000D01*
X99600000Y-140600000D02*
X98400000Y-140600000D01*
X99600000Y-116600000D02*
X98400000Y-116600000D01*
X98400000Y-116600000D02*
X99600000Y-116600000D01*
X99600000Y-116600000D02*
X98400000Y-116600000D01*
X99600000Y-137600000D02*
X98400000Y-137600000D01*
X98400000Y-137600000D02*
X99600000Y-137600000D01*
X99600000Y-137600000D02*
X98400000Y-137600000D01*
X99600000Y-113600000D02*
X98400000Y-113600000D01*
X98400000Y-113600000D02*
X99600000Y-113600000D01*
X99600000Y-113600000D02*
X98400000Y-113600000D01*
X97600000Y-158600000D02*
X96400000Y-158600000D01*
X96400000Y-158600000D02*
X97600000Y-158600000D01*
X97600000Y-158600000D02*
X96400000Y-158600000D01*
X97600000Y-134600000D02*
X96400000Y-134600000D01*
X96400000Y-134600000D02*
X97600000Y-134600000D01*
X97600000Y-134600000D02*
X96400000Y-134600000D01*
X97600000Y-155600000D02*
X96400000Y-155600000D01*
X96400000Y-155600000D02*
X97600000Y-155600000D01*
X97600000Y-155600000D02*
X96400000Y-155600000D01*
X97600000Y-131600000D02*
X96400000Y-131600000D01*
X96400000Y-131600000D02*
X97600000Y-131600000D01*
X97600000Y-131600000D02*
X96400000Y-131600000D01*
X97600000Y-152600000D02*
X96400000Y-152600000D01*
X96400000Y-152600000D02*
X97600000Y-152600000D01*
X97600000Y-152600000D02*
X96400000Y-152600000D01*
X97600000Y-128600000D02*
X96400000Y-128600000D01*
X96400000Y-128600000D02*
X97600000Y-128600000D01*
X97600000Y-128600000D02*
X96400000Y-128600000D01*
X97600000Y-149600000D02*
X96400000Y-149600000D01*
X96400000Y-149600000D02*
X97600000Y-149600000D01*
X97600000Y-149600000D02*
X96400000Y-149600000D01*
X97600000Y-125600000D02*
X96400000Y-125600000D01*
X96400000Y-125600000D02*
X97600000Y-125600000D01*
X97600000Y-125600000D02*
X96400000Y-125600000D01*
X97600000Y-146600000D02*
X96400000Y-146600000D01*
X96400000Y-146600000D02*
X97600000Y-146600000D01*
X97600000Y-146600000D02*
X96400000Y-146600000D01*
X97600000Y-122600000D02*
X96400000Y-122600000D01*
X96400000Y-122600000D02*
X97600000Y-122600000D01*
X97600000Y-122600000D02*
X96400000Y-122600000D01*
X97600000Y-143600000D02*
X96400000Y-143600000D01*
X96400000Y-143600000D02*
X97600000Y-143600000D01*
X97600000Y-143600000D02*
X96400000Y-143600000D01*
X97600000Y-119600000D02*
X96400000Y-119600000D01*
X96400000Y-119600000D02*
X97600000Y-119600000D01*
X97600000Y-119600000D02*
X96400000Y-119600000D01*
X97600000Y-140600000D02*
X96400000Y-140600000D01*
X96400000Y-140600000D02*
X97600000Y-140600000D01*
X97600000Y-140600000D02*
X96400000Y-140600000D01*
X97600000Y-116600000D02*
X96400000Y-116600000D01*
X96400000Y-116600000D02*
X97600000Y-116600000D01*
X97600000Y-116600000D02*
X96400000Y-116600000D01*
X97600000Y-137600000D02*
X96400000Y-137600000D01*
X96400000Y-137600000D02*
X97600000Y-137600000D01*
X97600000Y-137600000D02*
X96400000Y-137600000D01*
X97600000Y-113600000D02*
X96400000Y-113600000D01*
X96400000Y-113600000D02*
X97600000Y-113600000D01*
X97600000Y-113600000D02*
X96400000Y-113600000D01*
X95600000Y-158600000D02*
X94400000Y-158600000D01*
X94400000Y-158600000D02*
X95600000Y-158600000D01*
X95600000Y-158600000D02*
X94400000Y-158600000D01*
X95600000Y-134600000D02*
X94400000Y-134600000D01*
X94400000Y-134600000D02*
X95600000Y-134600000D01*
X95600000Y-134600000D02*
X94400000Y-134600000D01*
X95600000Y-155600000D02*
X94400000Y-155600000D01*
X94400000Y-155600000D02*
X95600000Y-155600000D01*
X95600000Y-155600000D02*
X94400000Y-155600000D01*
X95600000Y-131600000D02*
X94400000Y-131600000D01*
X94400000Y-131600000D02*
X95600000Y-131600000D01*
X95600000Y-131600000D02*
X94400000Y-131600000D01*
X95600000Y-152600000D02*
X94400000Y-152600000D01*
X94400000Y-152600000D02*
X95600000Y-152600000D01*
X95600000Y-152600000D02*
X94400000Y-152600000D01*
X95600000Y-128600000D02*
X94400000Y-128600000D01*
X94400000Y-128600000D02*
X95600000Y-128600000D01*
X95600000Y-128600000D02*
X94400000Y-128600000D01*
X95600000Y-149600000D02*
X94400000Y-149600000D01*
X94400000Y-149600000D02*
X95600000Y-149600000D01*
X95600000Y-149600000D02*
X94400000Y-149600000D01*
X95600000Y-125600000D02*
X94400000Y-125600000D01*
X94400000Y-125600000D02*
X95600000Y-125600000D01*
X95600000Y-125600000D02*
X94400000Y-125600000D01*
X95600000Y-146600000D02*
X94400000Y-146600000D01*
X94400000Y-146600000D02*
X95600000Y-146600000D01*
X95600000Y-146600000D02*
X94400000Y-146600000D01*
X95600000Y-122600000D02*
X94400000Y-122600000D01*
X94400000Y-122600000D02*
X95600000Y-122600000D01*
X95600000Y-122600000D02*
X94400000Y-122600000D01*
X95600000Y-143600000D02*
X94400000Y-143600000D01*
X94400000Y-143600000D02*
X95600000Y-143600000D01*
X95600000Y-143600000D02*
X94400000Y-143600000D01*
X95600000Y-119600000D02*
X94400000Y-119600000D01*
X94400000Y-119600000D02*
X95600000Y-119600000D01*
X95600000Y-119600000D02*
X94400000Y-119600000D01*
X95600000Y-140600000D02*
X94400000Y-140600000D01*
X94400000Y-140600000D02*
X95600000Y-140600000D01*
X95600000Y-140600000D02*
X94400000Y-140600000D01*
X95600000Y-116600000D02*
X94400000Y-116600000D01*
X94400000Y-116600000D02*
X95600000Y-116600000D01*
X95600000Y-116600000D02*
X94400000Y-116600000D01*
X95600000Y-137600000D02*
X94400000Y-137600000D01*
X94400000Y-137600000D02*
X95600000Y-137600000D01*
X95600000Y-137600000D02*
X94400000Y-137600000D01*
X95600000Y-113600000D02*
X94400000Y-113600000D01*
X94400000Y-113600000D02*
X95600000Y-113600000D01*
X95600000Y-113600000D02*
X94400000Y-113600000D01*
X93600000Y-158600000D02*
X92400000Y-158600000D01*
X92400000Y-158600000D02*
X93600000Y-158600000D01*
X93600000Y-158600000D02*
X92400000Y-158600000D01*
X93600000Y-134600000D02*
X92400000Y-134600000D01*
X92400000Y-134600000D02*
X93600000Y-134600000D01*
X93600000Y-134600000D02*
X92400000Y-134600000D01*
X93600000Y-155600000D02*
X92400000Y-155600000D01*
X92400000Y-155600000D02*
X93600000Y-155600000D01*
X93600000Y-155600000D02*
X92400000Y-155600000D01*
X93600000Y-131600000D02*
X92400000Y-131600000D01*
X92400000Y-131600000D02*
X93600000Y-131600000D01*
X93600000Y-131600000D02*
X92400000Y-131600000D01*
X93600000Y-152600000D02*
X92400000Y-152600000D01*
X92400000Y-152600000D02*
X93600000Y-152600000D01*
X93600000Y-152600000D02*
X92400000Y-152600000D01*
X93600000Y-128600000D02*
X92400000Y-128600000D01*
X92400000Y-128600000D02*
X93600000Y-128600000D01*
X93600000Y-128600000D02*
X92400000Y-128600000D01*
X93600000Y-149600000D02*
X92400000Y-149600000D01*
X92400000Y-149600000D02*
X93600000Y-149600000D01*
X93600000Y-149600000D02*
X92400000Y-149600000D01*
X105500000Y-174650000D02*
X106500000Y-174650000D01*
X107150000Y-178100000D02*
X107150000Y-176900000D01*
X107150000Y-176900000D02*
X107150000Y-178100000D01*
X107150000Y-178100000D02*
X107150000Y-176900000D01*
X52800000Y-169500000D02*
X52800000Y-179500000D01*
X46500000Y-169500000D02*
X52800000Y-169500000D01*
X46500000Y-179500000D02*
X52800000Y-179500000D01*
X46500000Y-169500000D02*
X46500000Y-179500000D01*
X128100000Y-176250000D02*
X128100000Y-177250000D01*
X123000000Y-172900000D02*
X124000000Y-172900000D01*
X130600000Y-173000000D02*
X130600000Y-174000000D01*
X126750000Y-177100000D02*
X125750000Y-177100000D01*
X125250000Y-175600000D02*
X124250000Y-175600000D01*
X124150000Y-178500000D02*
X124150000Y-177500000D01*
X122300000Y-171300000D02*
X121300000Y-171300000D01*
X128100000Y-177750000D02*
X128100000Y-178750000D01*
X130600000Y-174500000D02*
X130600000Y-175500000D01*
X133950000Y-178300000D02*
G75*
G03X133950000Y-178300000I-2000000J0D01*
G01*
X127850000Y-175850000D02*
X126950000Y-175850000D01*
X126950000Y-172750000D02*
X127850000Y-172750000D01*
X127850000Y-172750000D02*
X127850000Y-175850000D01*
X126950000Y-172750000D02*
X126950000Y-175850000D01*
X125600000Y-171500000D02*
X125600000Y-172500000D01*
X128025000Y-156800000D02*
X128025000Y-157800000D01*
X131075000Y-156800000D02*
X131075000Y-157800000D01*
X131075000Y-157800000D02*
X128025000Y-157800000D01*
X131075000Y-156800000D02*
X128025000Y-156800000D01*
X132700000Y-159400000D02*
X131700000Y-159400000D01*
X124560000Y-151600000D02*
X124560000Y-154400000D01*
X129900000Y-151600000D02*
X129900000Y-154400000D01*
X129900000Y-151600000D02*
X124560000Y-151600000D01*
X129900000Y-154400000D02*
X124560000Y-154400000D01*
X131200000Y-161100000D02*
X131200000Y-162100000D01*
X126500000Y-157900000D02*
X127500000Y-157900000D01*
X132500000Y-156600000D02*
X131500000Y-156600000D01*
X119300000Y-114500000D02*
X119300000Y-124500000D01*
X113000000Y-114500000D02*
X119300000Y-114500000D01*
X113000000Y-124500000D02*
X119300000Y-124500000D01*
X113000000Y-114500000D02*
X113000000Y-124500000D01*
X130000000Y-140900000D02*
X131000000Y-140900000D01*
X122100000Y-142500000D02*
X122100000Y-143500000D01*
X111500000Y-129651000D02*
X111500000Y-126349000D01*
X111500000Y-133151000D02*
X111500000Y-129849000D01*
X111500000Y-140151000D02*
X111500000Y-136849000D01*
X111500000Y-136651000D02*
X111500000Y-133349000D01*
X127500000Y-150651000D02*
X127500000Y-147349000D01*
X127500000Y-147151000D02*
X127500000Y-143849000D01*
X128500000Y-140900000D02*
X129500000Y-140900000D01*
X130353605Y-135659000D02*
G75*
G03X130353605Y-135659000I-179605J0D01*
G01*
X129555000Y-130370000D02*
X126501000Y-130370000D01*
X129555000Y-135370000D02*
X126501000Y-135370000D01*
X126501000Y-135370000D02*
X126501000Y-130370000D01*
X129555000Y-135370000D02*
X129555000Y-130370000D01*
X126400000Y-143500000D02*
X126400000Y-142500000D01*
X128000000Y-125000000D02*
X128000000Y-129000000D01*
D12*
X126396750Y-136871100D02*
X122154950Y-136871100D01*
X122154950Y-142128900D02*
X126396750Y-142128900D01*
D11*
X107250000Y-174650000D02*
X108250000Y-174650000D01*
X110246274Y-170060000D02*
G75*
G03X110246274Y-170060000I-226274J0D01*
G01*
X111000000Y-178815000D02*
X114300000Y-178815000D01*
X111000000Y-170165000D02*
X114300000Y-170165000D01*
X114300000Y-170165000D02*
X114300000Y-178815000D01*
X111000000Y-170165000D02*
X111000000Y-178815000D01*
X100800000Y-169500000D02*
X100800000Y-179500000D01*
X94500000Y-169500000D02*
X100800000Y-169500000D01*
X94500000Y-179500000D02*
X100800000Y-179500000D01*
X94500000Y-169500000D02*
X94500000Y-179500000D01*
X124450000Y-106200000D02*
X124450000Y-106800000D01*
X125400000Y-106800000D02*
X123500000Y-106800000D01*
X109450000Y-110200000D02*
X109450000Y-110800000D01*
X110400000Y-110800000D02*
X108500000Y-110800000D01*
X113000000Y-158000000D02*
X113000000Y-148000000D01*
X119300000Y-158000000D02*
X113000000Y-158000000D01*
X119300000Y-148000000D02*
X113000000Y-148000000D01*
X119300000Y-158000000D02*
X119300000Y-148000000D01*
X73750000Y-170600000D02*
X72750000Y-170600000D01*
X89750000Y-170600000D02*
X88750000Y-170600000D01*
X117700000Y-161700000D02*
X118700000Y-161700000D01*
X112700000Y-161700000D02*
X113700000Y-161700000D01*
X122700000Y-161700000D02*
X123700000Y-161700000D01*
X124300000Y-158600000D02*
X125300000Y-158600000D01*
X123900000Y-166000000D02*
X122900000Y-166000000D01*
X118700000Y-166000000D02*
X117700000Y-166000000D01*
X113700000Y-166000000D02*
X112700000Y-166000000D01*
X108700000Y-166000000D02*
X107700000Y-166000000D01*
X111500000Y-106900000D02*
X112500000Y-106900000D01*
X116500000Y-106900000D02*
X117500000Y-106900000D01*
X126500000Y-106900000D02*
X127500000Y-106900000D01*
X121500000Y-106900000D02*
X122500000Y-106900000D01*
X111500000Y-110900000D02*
X112500000Y-110900000D01*
X116500000Y-110900000D02*
X117500000Y-110900000D01*
X121500000Y-110900000D02*
X122500000Y-110900000D01*
X126500000Y-110900000D02*
X127500000Y-110900000D01*
X115950000Y-162100000D02*
X115950000Y-161500000D01*
X115000000Y-161500000D02*
X116900000Y-161500000D01*
X110850000Y-162100000D02*
X110850000Y-161500000D01*
X109900000Y-161500000D02*
X111800000Y-161500000D01*
X120950000Y-162100000D02*
X120950000Y-161500000D01*
X120000000Y-161500000D02*
X121900000Y-161500000D01*
X125850000Y-162100000D02*
X125850000Y-161500000D01*
X124900000Y-161500000D02*
X126800000Y-161500000D01*
X126150000Y-166700000D02*
X126150000Y-166100000D01*
X125200000Y-166100000D02*
X127100000Y-166100000D01*
X120950000Y-166700000D02*
X120950000Y-166100000D01*
X120000000Y-166100000D02*
X121900000Y-166100000D01*
X115950000Y-166700000D02*
X115950000Y-166100000D01*
X115000000Y-166100000D02*
X116900000Y-166100000D01*
X110850000Y-166700000D02*
X110850000Y-166100000D01*
X109900000Y-166100000D02*
X111800000Y-166100000D01*
X109450000Y-106200000D02*
X109450000Y-106800000D01*
X110400000Y-106800000D02*
X108500000Y-106800000D01*
X114450000Y-106200000D02*
X114450000Y-106800000D01*
X115400000Y-106800000D02*
X113500000Y-106800000D01*
X119450000Y-106200000D02*
X119450000Y-106800000D01*
X120400000Y-106800000D02*
X118500000Y-106800000D01*
X114450000Y-110200000D02*
X114450000Y-110800000D01*
X115400000Y-110800000D02*
X113500000Y-110800000D01*
X119450000Y-110200000D02*
X119450000Y-110800000D01*
X120400000Y-110800000D02*
X118500000Y-110800000D01*
X124450000Y-110200000D02*
X124450000Y-110800000D01*
X125400000Y-110800000D02*
X123500000Y-110800000D01*
X109000000Y-115400000D02*
X110000000Y-115400000D01*
X108100000Y-157000000D02*
X109100000Y-157000000D01*
X91500000Y-170600000D02*
X90500000Y-170600000D01*
X75500000Y-170600000D02*
X74500000Y-170600000D01*
X59500000Y-170600000D02*
X58500000Y-170600000D01*
X43500000Y-170600000D02*
X42500000Y-170600000D01*
X68800000Y-169500000D02*
X68800000Y-179500000D01*
X62500000Y-169500000D02*
X68800000Y-169500000D01*
X62500000Y-179500000D02*
X68800000Y-179500000D01*
X62500000Y-169500000D02*
X62500000Y-179500000D01*
X84800000Y-169500000D02*
X84800000Y-179500000D01*
X78500000Y-169500000D02*
X84800000Y-169500000D01*
X78500000Y-179500000D02*
X84800000Y-179500000D01*
X78500000Y-169500000D02*
X78500000Y-179500000D01*
X55600000Y-125600000D02*
X54400000Y-125600000D01*
X54400000Y-125600000D02*
X55600000Y-125600000D01*
X55600000Y-125600000D02*
X54400000Y-125600000D01*
X49600000Y-128600000D02*
X48400000Y-128600000D01*
X48400000Y-128600000D02*
X49600000Y-128600000D01*
X49600000Y-128600000D02*
X48400000Y-128600000D01*
X51600000Y-128600000D02*
X50400000Y-128600000D01*
X50400000Y-128600000D02*
X51600000Y-128600000D01*
X51600000Y-128600000D02*
X50400000Y-128600000D01*
X45600000Y-140600000D02*
X44400000Y-140600000D01*
X44400000Y-140600000D02*
X45600000Y-140600000D01*
X45600000Y-140600000D02*
X44400000Y-140600000D01*
X107600000Y-158600000D02*
X106400000Y-158600000D01*
X106400000Y-158600000D02*
X107600000Y-158600000D01*
X107600000Y-158600000D02*
X106400000Y-158600000D01*
X107600000Y-134600000D02*
X106400000Y-134600000D01*
X106400000Y-134600000D02*
X107600000Y-134600000D01*
X107600000Y-134600000D02*
X106400000Y-134600000D01*
X107600000Y-155600000D02*
X106400000Y-155600000D01*
X106400000Y-155600000D02*
X107600000Y-155600000D01*
X107600000Y-155600000D02*
X106400000Y-155600000D01*
X107600000Y-131600000D02*
X106400000Y-131600000D01*
X106400000Y-131600000D02*
X107600000Y-131600000D01*
X107600000Y-131600000D02*
X106400000Y-131600000D01*
X107600000Y-152600000D02*
X106400000Y-152600000D01*
X106400000Y-152600000D02*
X107600000Y-152600000D01*
X107600000Y-152600000D02*
X106400000Y-152600000D01*
X107600000Y-128600000D02*
X106400000Y-128600000D01*
X106400000Y-128600000D02*
X107600000Y-128600000D01*
X107600000Y-128600000D02*
X106400000Y-128600000D01*
X107600000Y-149600000D02*
X106400000Y-149600000D01*
X106400000Y-149600000D02*
X107600000Y-149600000D01*
X107600000Y-149600000D02*
X106400000Y-149600000D01*
X107600000Y-125600000D02*
X106400000Y-125600000D01*
X106400000Y-125600000D02*
X107600000Y-125600000D01*
X107600000Y-125600000D02*
X106400000Y-125600000D01*
X107600000Y-146600000D02*
X106400000Y-146600000D01*
X106400000Y-146600000D02*
X107600000Y-146600000D01*
X107600000Y-146600000D02*
X106400000Y-146600000D01*
X107600000Y-122600000D02*
X106400000Y-122600000D01*
X106400000Y-122600000D02*
X107600000Y-122600000D01*
X107600000Y-122600000D02*
X106400000Y-122600000D01*
X107600000Y-143600000D02*
X106400000Y-143600000D01*
X106400000Y-143600000D02*
X107600000Y-143600000D01*
X107600000Y-143600000D02*
X106400000Y-143600000D01*
X107600000Y-119600000D02*
X106400000Y-119600000D01*
X106400000Y-119600000D02*
X107600000Y-119600000D01*
X107600000Y-119600000D02*
X106400000Y-119600000D01*
X107600000Y-140600000D02*
X106400000Y-140600000D01*
X106400000Y-140600000D02*
X107600000Y-140600000D01*
X107600000Y-140600000D02*
X106400000Y-140600000D01*
X107600000Y-116600000D02*
X106400000Y-116600000D01*
X106400000Y-116600000D02*
X107600000Y-116600000D01*
X107600000Y-116600000D02*
X106400000Y-116600000D01*
X107600000Y-137600000D02*
X106400000Y-137600000D01*
X106400000Y-137600000D02*
X107600000Y-137600000D01*
X107600000Y-137600000D02*
X106400000Y-137600000D01*
X107600000Y-113600000D02*
X106400000Y-113600000D01*
X106400000Y-113600000D02*
X107600000Y-113600000D01*
X107600000Y-113600000D02*
X106400000Y-113600000D01*
X57600000Y-158600000D02*
X56400000Y-158600000D01*
X56400000Y-158600000D02*
X57600000Y-158600000D01*
X57600000Y-158600000D02*
X56400000Y-158600000D01*
X105600000Y-158600000D02*
X104400000Y-158600000D01*
X104400000Y-158600000D02*
X105600000Y-158600000D01*
X105600000Y-158600000D02*
X104400000Y-158600000D01*
X57600000Y-134600000D02*
X56400000Y-134600000D01*
X56400000Y-134600000D02*
X57600000Y-134600000D01*
X57600000Y-134600000D02*
X56400000Y-134600000D01*
X105600000Y-134600000D02*
X104400000Y-134600000D01*
X104400000Y-134600000D02*
X105600000Y-134600000D01*
X105600000Y-134600000D02*
X104400000Y-134600000D01*
X57600000Y-155600000D02*
X56400000Y-155600000D01*
X56400000Y-155600000D02*
X57600000Y-155600000D01*
X57600000Y-155600000D02*
X56400000Y-155600000D01*
X105600000Y-155600000D02*
X104400000Y-155600000D01*
X104400000Y-155600000D02*
X105600000Y-155600000D01*
X105600000Y-155600000D02*
X104400000Y-155600000D01*
X57600000Y-131600000D02*
X56400000Y-131600000D01*
X56400000Y-131600000D02*
X57600000Y-131600000D01*
X57600000Y-131600000D02*
X56400000Y-131600000D01*
X105600000Y-131600000D02*
X104400000Y-131600000D01*
X104400000Y-131600000D02*
X105600000Y-131600000D01*
X105600000Y-131600000D02*
X104400000Y-131600000D01*
X57600000Y-152600000D02*
X56400000Y-152600000D01*
X56400000Y-152600000D02*
X57600000Y-152600000D01*
X57600000Y-152600000D02*
X56400000Y-152600000D01*
X105600000Y-152600000D02*
X104400000Y-152600000D01*
X104400000Y-152600000D02*
X105600000Y-152600000D01*
X105600000Y-152600000D02*
X104400000Y-152600000D01*
X57600000Y-128600000D02*
X56400000Y-128600000D01*
X56400000Y-128600000D02*
X57600000Y-128600000D01*
X57600000Y-128600000D02*
X56400000Y-128600000D01*
X105600000Y-128600000D02*
X104400000Y-128600000D01*
X104400000Y-128600000D02*
X105600000Y-128600000D01*
X105600000Y-128600000D02*
X104400000Y-128600000D01*
X57600000Y-149600000D02*
X56400000Y-149600000D01*
X56400000Y-149600000D02*
X57600000Y-149600000D01*
X57600000Y-149600000D02*
X56400000Y-149600000D01*
X105600000Y-149600000D02*
X104400000Y-149600000D01*
X104400000Y-149600000D02*
X105600000Y-149600000D01*
X105600000Y-149600000D02*
X104400000Y-149600000D01*
X57600000Y-125600000D02*
X56400000Y-125600000D01*
X56400000Y-125600000D02*
X57600000Y-125600000D01*
X57600000Y-125600000D02*
X56400000Y-125600000D01*
X105600000Y-125600000D02*
X104400000Y-125600000D01*
X104400000Y-125600000D02*
X105600000Y-125600000D01*
X105600000Y-125600000D02*
X104400000Y-125600000D01*
X57600000Y-146600000D02*
X56400000Y-146600000D01*
X56400000Y-146600000D02*
X57600000Y-146600000D01*
X57600000Y-146600000D02*
X56400000Y-146600000D01*
X105600000Y-146600000D02*
X104400000Y-146600000D01*
X104400000Y-146600000D02*
X105600000Y-146600000D01*
X105600000Y-146600000D02*
X104400000Y-146600000D01*
X57600000Y-122600000D02*
X56400000Y-122600000D01*
X56400000Y-122600000D02*
X57600000Y-122600000D01*
X57600000Y-122600000D02*
X56400000Y-122600000D01*
X105600000Y-122600000D02*
X104400000Y-122600000D01*
X104400000Y-122600000D02*
X105600000Y-122600000D01*
X105600000Y-122600000D02*
X104400000Y-122600000D01*
X57600000Y-143600000D02*
X56400000Y-143600000D01*
X56400000Y-143600000D02*
X57600000Y-143600000D01*
X57600000Y-143600000D02*
X56400000Y-143600000D01*
X105600000Y-143600000D02*
X104400000Y-143600000D01*
X104400000Y-143600000D02*
X105600000Y-143600000D01*
X105600000Y-143600000D02*
X104400000Y-143600000D01*
X57600000Y-119600000D02*
X56400000Y-119600000D01*
X56400000Y-119600000D02*
X57600000Y-119600000D01*
X57600000Y-119600000D02*
X56400000Y-119600000D01*
X105600000Y-119600000D02*
X104400000Y-119600000D01*
X104400000Y-119600000D02*
X105600000Y-119600000D01*
X105600000Y-119600000D02*
X104400000Y-119600000D01*
X57600000Y-140600000D02*
X56400000Y-140600000D01*
X56400000Y-140600000D02*
X57600000Y-140600000D01*
X57600000Y-140600000D02*
X56400000Y-140600000D01*
X105600000Y-140600000D02*
X104400000Y-140600000D01*
X104400000Y-140600000D02*
X105600000Y-140600000D01*
X105600000Y-140600000D02*
X104400000Y-140600000D01*
X57600000Y-116600000D02*
X56400000Y-116600000D01*
X56400000Y-116600000D02*
X57600000Y-116600000D01*
X57600000Y-116600000D02*
X56400000Y-116600000D01*
X105600000Y-116600000D02*
X104400000Y-116600000D01*
X104400000Y-116600000D02*
X105600000Y-116600000D01*
X105600000Y-116600000D02*
X104400000Y-116600000D01*
X57600000Y-137600000D02*
X56400000Y-137600000D01*
X56400000Y-137600000D02*
X57600000Y-137600000D01*
X57600000Y-137600000D02*
X56400000Y-137600000D01*
X105600000Y-137600000D02*
X104400000Y-137600000D01*
X104400000Y-137600000D02*
X105600000Y-137600000D01*
X105600000Y-137600000D02*
X104400000Y-137600000D01*
X57600000Y-113600000D02*
X56400000Y-113600000D01*
X56400000Y-113600000D02*
X57600000Y-113600000D01*
X57600000Y-113600000D02*
X56400000Y-113600000D01*
X105600000Y-113600000D02*
X104400000Y-113600000D01*
X104400000Y-113600000D02*
X105600000Y-113600000D01*
X105600000Y-113600000D02*
X104400000Y-113600000D01*
X55600000Y-158600000D02*
X54400000Y-158600000D01*
X54400000Y-158600000D02*
X55600000Y-158600000D01*
X55600000Y-158600000D02*
X54400000Y-158600000D01*
X103600000Y-158600000D02*
X102400000Y-158600000D01*
X102400000Y-158600000D02*
X103600000Y-158600000D01*
X103600000Y-158600000D02*
X102400000Y-158600000D01*
X55600000Y-134600000D02*
X54400000Y-134600000D01*
X54400000Y-134600000D02*
X55600000Y-134600000D01*
X55600000Y-134600000D02*
X54400000Y-134600000D01*
X103600000Y-134600000D02*
X102400000Y-134600000D01*
X102400000Y-134600000D02*
X103600000Y-134600000D01*
X103600000Y-134600000D02*
X102400000Y-134600000D01*
X55600000Y-155600000D02*
X54400000Y-155600000D01*
X54400000Y-155600000D02*
X55600000Y-155600000D01*
X55600000Y-155600000D02*
X54400000Y-155600000D01*
X103600000Y-155600000D02*
X102400000Y-155600000D01*
X102400000Y-155600000D02*
X103600000Y-155600000D01*
X103600000Y-155600000D02*
X102400000Y-155600000D01*
X55600000Y-131600000D02*
X54400000Y-131600000D01*
X54400000Y-131600000D02*
X55600000Y-131600000D01*
X55600000Y-131600000D02*
X54400000Y-131600000D01*
X103600000Y-131600000D02*
X102400000Y-131600000D01*
X102400000Y-131600000D02*
X103600000Y-131600000D01*
X103600000Y-131600000D02*
X102400000Y-131600000D01*
X55600000Y-152600000D02*
X54400000Y-152600000D01*
X54400000Y-152600000D02*
X55600000Y-152600000D01*
X55600000Y-152600000D02*
X54400000Y-152600000D01*
X103600000Y-152600000D02*
X102400000Y-152600000D01*
X102400000Y-152600000D02*
X103600000Y-152600000D01*
X103600000Y-152600000D02*
X102400000Y-152600000D01*
X55600000Y-128600000D02*
X54400000Y-128600000D01*
X54400000Y-128600000D02*
X55600000Y-128600000D01*
X55600000Y-128600000D02*
X54400000Y-128600000D01*
X103600000Y-128600000D02*
X102400000Y-128600000D01*
X102400000Y-128600000D02*
X103600000Y-128600000D01*
X103600000Y-128600000D02*
X102400000Y-128600000D01*
X55600000Y-149600000D02*
X54400000Y-149600000D01*
X54400000Y-149600000D02*
X55600000Y-149600000D01*
X55600000Y-149600000D02*
X54400000Y-149600000D01*
X103600000Y-149600000D02*
X102400000Y-149600000D01*
X102400000Y-149600000D02*
X103600000Y-149600000D01*
X103600000Y-149600000D02*
X102400000Y-149600000D01*
X103600000Y-125600000D02*
X102400000Y-125600000D01*
X102400000Y-125600000D02*
X103600000Y-125600000D01*
X103600000Y-125600000D02*
X102400000Y-125600000D01*
X55600000Y-146600000D02*
X54400000Y-146600000D01*
X54400000Y-146600000D02*
X55600000Y-146600000D01*
X55600000Y-146600000D02*
X54400000Y-146600000D01*
X103600000Y-146600000D02*
X102400000Y-146600000D01*
X102400000Y-146600000D02*
X103600000Y-146600000D01*
X103600000Y-146600000D02*
X102400000Y-146600000D01*
X55600000Y-122600000D02*
X54400000Y-122600000D01*
X54400000Y-122600000D02*
X55600000Y-122600000D01*
X55600000Y-122600000D02*
X54400000Y-122600000D01*
X103600000Y-122600000D02*
X102400000Y-122600000D01*
X102400000Y-122600000D02*
X103600000Y-122600000D01*
X103600000Y-122600000D02*
X102400000Y-122600000D01*
X55600000Y-143600000D02*
X54400000Y-143600000D01*
X54400000Y-143600000D02*
X55600000Y-143600000D01*
X55600000Y-143600000D02*
X54400000Y-143600000D01*
X103600000Y-143600000D02*
X102400000Y-143600000D01*
X102400000Y-143600000D02*
X103600000Y-143600000D01*
X103600000Y-143600000D02*
X102400000Y-143600000D01*
X55600000Y-119600000D02*
X54400000Y-119600000D01*
X54400000Y-119600000D02*
X55600000Y-119600000D01*
X55600000Y-119600000D02*
X54400000Y-119600000D01*
X103600000Y-119600000D02*
X102400000Y-119600000D01*
X102400000Y-119600000D02*
X103600000Y-119600000D01*
X103600000Y-119600000D02*
X102400000Y-119600000D01*
X55600000Y-140600000D02*
X54400000Y-140600000D01*
X54400000Y-140600000D02*
X55600000Y-140600000D01*
X55600000Y-140600000D02*
X54400000Y-140600000D01*
X103600000Y-140600000D02*
X102400000Y-140600000D01*
X102400000Y-140600000D02*
X103600000Y-140600000D01*
X103600000Y-140600000D02*
X102400000Y-140600000D01*
X55600000Y-116600000D02*
X54400000Y-116600000D01*
X54400000Y-116600000D02*
X55600000Y-116600000D01*
X55600000Y-116600000D02*
X54400000Y-116600000D01*
X103600000Y-116600000D02*
X102400000Y-116600000D01*
X102400000Y-116600000D02*
X103600000Y-116600000D01*
X103600000Y-116600000D02*
X102400000Y-116600000D01*
X55600000Y-137600000D02*
X54400000Y-137600000D01*
X54400000Y-137600000D02*
X55600000Y-137600000D01*
X55600000Y-137600000D02*
X54400000Y-137600000D01*
X103600000Y-137600000D02*
X102400000Y-137600000D01*
X102400000Y-137600000D02*
X103600000Y-137600000D01*
X103600000Y-137600000D02*
X102400000Y-137600000D01*
X55600000Y-113600000D02*
X54400000Y-113600000D01*
X54400000Y-113600000D02*
X55600000Y-113600000D01*
X55600000Y-113600000D02*
X54400000Y-113600000D01*
X103600000Y-113600000D02*
X102400000Y-113600000D01*
X102400000Y-113600000D02*
X103600000Y-113600000D01*
X103600000Y-113600000D02*
X102400000Y-113600000D01*
X53600000Y-158600000D02*
X52400000Y-158600000D01*
X52400000Y-158600000D02*
X53600000Y-158600000D01*
X53600000Y-158600000D02*
X52400000Y-158600000D01*
X101600000Y-158600000D02*
X100400000Y-158600000D01*
X100400000Y-158600000D02*
X101600000Y-158600000D01*
X101600000Y-158600000D02*
X100400000Y-158600000D01*
X53600000Y-134600000D02*
X52400000Y-134600000D01*
X52400000Y-134600000D02*
X53600000Y-134600000D01*
X53600000Y-134600000D02*
X52400000Y-134600000D01*
X101600000Y-134600000D02*
X100400000Y-134600000D01*
X100400000Y-134600000D02*
X101600000Y-134600000D01*
X101600000Y-134600000D02*
X100400000Y-134600000D01*
X53600000Y-155600000D02*
X52400000Y-155600000D01*
X52400000Y-155600000D02*
X53600000Y-155600000D01*
X53600000Y-155600000D02*
X52400000Y-155600000D01*
X101600000Y-155600000D02*
X100400000Y-155600000D01*
X100400000Y-155600000D02*
X101600000Y-155600000D01*
X101600000Y-155600000D02*
X100400000Y-155600000D01*
X53600000Y-131600000D02*
X52400000Y-131600000D01*
X52400000Y-131600000D02*
X53600000Y-131600000D01*
X53600000Y-131600000D02*
X52400000Y-131600000D01*
X101600000Y-131600000D02*
X100400000Y-131600000D01*
X100400000Y-131600000D02*
X101600000Y-131600000D01*
X101600000Y-131600000D02*
X100400000Y-131600000D01*
X53600000Y-152600000D02*
X52400000Y-152600000D01*
X52400000Y-152600000D02*
X53600000Y-152600000D01*
X53600000Y-152600000D02*
X52400000Y-152600000D01*
X101600000Y-152600000D02*
X100400000Y-152600000D01*
X100400000Y-152600000D02*
X101600000Y-152600000D01*
X101600000Y-152600000D02*
X100400000Y-152600000D01*
X53600000Y-128600000D02*
X52400000Y-128600000D01*
X52400000Y-128600000D02*
X53600000Y-128600000D01*
X53600000Y-128600000D02*
X52400000Y-128600000D01*
X101600000Y-128600000D02*
X100400000Y-128600000D01*
X100400000Y-128600000D02*
X101600000Y-128600000D01*
X101600000Y-128600000D02*
X100400000Y-128600000D01*
X53600000Y-149600000D02*
X52400000Y-149600000D01*
X52400000Y-149600000D02*
X53600000Y-149600000D01*
X53600000Y-149600000D02*
X52400000Y-149600000D01*
X101600000Y-149600000D02*
X100400000Y-149600000D01*
X100400000Y-149600000D02*
X101600000Y-149600000D01*
X101600000Y-149600000D02*
X100400000Y-149600000D01*
X53600000Y-125600000D02*
X52400000Y-125600000D01*
X52400000Y-125600000D02*
X53600000Y-125600000D01*
X53600000Y-125600000D02*
X52400000Y-125600000D01*
X101600000Y-125600000D02*
X100400000Y-125600000D01*
X100400000Y-125600000D02*
X101600000Y-125600000D01*
X101600000Y-125600000D02*
X100400000Y-125600000D01*
X53600000Y-146600000D02*
X52400000Y-146600000D01*
X52400000Y-146600000D02*
X53600000Y-146600000D01*
X53600000Y-146600000D02*
X52400000Y-146600000D01*
X101600000Y-146600000D02*
X100400000Y-146600000D01*
X100400000Y-146600000D02*
X101600000Y-146600000D01*
X101600000Y-146600000D02*
X100400000Y-146600000D01*
X53600000Y-122600000D02*
X52400000Y-122600000D01*
X52400000Y-122600000D02*
X53600000Y-122600000D01*
X53600000Y-122600000D02*
X52400000Y-122600000D01*
X101600000Y-122600000D02*
X100400000Y-122600000D01*
X100400000Y-122600000D02*
X101600000Y-122600000D01*
X101600000Y-122600000D02*
X100400000Y-122600000D01*
X53600000Y-143600000D02*
X52400000Y-143600000D01*
X52400000Y-143600000D02*
X53600000Y-143600000D01*
X53600000Y-143600000D02*
X52400000Y-143600000D01*
X101600000Y-143600000D02*
X100400000Y-143600000D01*
X100400000Y-143600000D02*
X101600000Y-143600000D01*
X101600000Y-143600000D02*
X100400000Y-143600000D01*
X53600000Y-119600000D02*
X52400000Y-119600000D01*
X52400000Y-119600000D02*
X53600000Y-119600000D01*
X53600000Y-119600000D02*
X52400000Y-119600000D01*
X101600000Y-119600000D02*
X100400000Y-119600000D01*
X100400000Y-119600000D02*
X101600000Y-119600000D01*
X101600000Y-119600000D02*
X100400000Y-119600000D01*
X53600000Y-140600000D02*
X52400000Y-140600000D01*
X52400000Y-140600000D02*
X53600000Y-140600000D01*
X53600000Y-140600000D02*
X52400000Y-140600000D01*
X101600000Y-140600000D02*
X100400000Y-140600000D01*
X100400000Y-140600000D02*
X101600000Y-140600000D01*
X101600000Y-140600000D02*
X100400000Y-140600000D01*
X53600000Y-116600000D02*
X52400000Y-116600000D01*
X52400000Y-116600000D02*
X53600000Y-116600000D01*
X53600000Y-116600000D02*
X52400000Y-116600000D01*
X101600000Y-116600000D02*
X100400000Y-116600000D01*
X100400000Y-116600000D02*
X101600000Y-116600000D01*
X101600000Y-116600000D02*
X100400000Y-116600000D01*
X53600000Y-137600000D02*
X52400000Y-137600000D01*
X52400000Y-137600000D02*
X53600000Y-137600000D01*
X53600000Y-137600000D02*
X52400000Y-137600000D01*
X101600000Y-137600000D02*
X100400000Y-137600000D01*
X100400000Y-137600000D02*
X101600000Y-137600000D01*
X101600000Y-137600000D02*
X100400000Y-137600000D01*
X53600000Y-113600000D02*
X52400000Y-113600000D01*
X52400000Y-113600000D02*
X53600000Y-113600000D01*
X53600000Y-113600000D02*
X52400000Y-113600000D01*
X101600000Y-113600000D02*
X100400000Y-113600000D01*
X100400000Y-113600000D02*
X101600000Y-113600000D01*
X101600000Y-113600000D02*
X100400000Y-113600000D01*
X51600000Y-158600000D02*
X50400000Y-158600000D01*
X50400000Y-158600000D02*
X51600000Y-158600000D01*
X51600000Y-158600000D02*
X50400000Y-158600000D01*
X51600000Y-134600000D02*
X50400000Y-134600000D01*
X50400000Y-134600000D02*
X51600000Y-134600000D01*
X51600000Y-134600000D02*
X50400000Y-134600000D01*
X51600000Y-155600000D02*
X50400000Y-155600000D01*
X50400000Y-155600000D02*
X51600000Y-155600000D01*
X51600000Y-155600000D02*
X50400000Y-155600000D01*
X51600000Y-131600000D02*
X50400000Y-131600000D01*
X50400000Y-131600000D02*
X51600000Y-131600000D01*
X51600000Y-131600000D02*
X50400000Y-131600000D01*
X51600000Y-152600000D02*
X50400000Y-152600000D01*
X50400000Y-152600000D02*
X51600000Y-152600000D01*
X51600000Y-152600000D02*
X50400000Y-152600000D01*
X51600000Y-149600000D02*
X50400000Y-149600000D01*
X50400000Y-149600000D02*
X51600000Y-149600000D01*
X51600000Y-149600000D02*
X50400000Y-149600000D01*
X51600000Y-125600000D02*
X50400000Y-125600000D01*
X50400000Y-125600000D02*
X51600000Y-125600000D01*
X51600000Y-125600000D02*
X50400000Y-125600000D01*
X51600000Y-146600000D02*
X50400000Y-146600000D01*
X50400000Y-146600000D02*
X51600000Y-146600000D01*
X51600000Y-146600000D02*
X50400000Y-146600000D01*
X51600000Y-122600000D02*
X50400000Y-122600000D01*
X50400000Y-122600000D02*
X51600000Y-122600000D01*
X51600000Y-122600000D02*
X50400000Y-122600000D01*
X51600000Y-143600000D02*
X50400000Y-143600000D01*
X50400000Y-143600000D02*
X51600000Y-143600000D01*
X51600000Y-143600000D02*
X50400000Y-143600000D01*
X51600000Y-119600000D02*
X50400000Y-119600000D01*
X50400000Y-119600000D02*
X51600000Y-119600000D01*
X51600000Y-119600000D02*
X50400000Y-119600000D01*
X51600000Y-140600000D02*
X50400000Y-140600000D01*
X50400000Y-140600000D02*
X51600000Y-140600000D01*
X51600000Y-140600000D02*
X50400000Y-140600000D01*
X51600000Y-116600000D02*
X50400000Y-116600000D01*
X50400000Y-116600000D02*
X51600000Y-116600000D01*
X51600000Y-116600000D02*
X50400000Y-116600000D01*
X51600000Y-137600000D02*
X50400000Y-137600000D01*
X50400000Y-137600000D02*
X51600000Y-137600000D01*
X51600000Y-137600000D02*
X50400000Y-137600000D01*
X51600000Y-113600000D02*
X50400000Y-113600000D01*
X50400000Y-113600000D02*
X51600000Y-113600000D01*
X51600000Y-113600000D02*
X50400000Y-113600000D01*
X49600000Y-158600000D02*
X48400000Y-158600000D01*
X48400000Y-158600000D02*
X49600000Y-158600000D01*
X49600000Y-158600000D02*
X48400000Y-158600000D01*
X49600000Y-134600000D02*
X48400000Y-134600000D01*
X48400000Y-134600000D02*
X49600000Y-134600000D01*
X49600000Y-134600000D02*
X48400000Y-134600000D01*
X49600000Y-155600000D02*
X48400000Y-155600000D01*
X48400000Y-155600000D02*
X49600000Y-155600000D01*
X49600000Y-155600000D02*
X48400000Y-155600000D01*
X49600000Y-131600000D02*
X48400000Y-131600000D01*
X48400000Y-131600000D02*
X49600000Y-131600000D01*
X49600000Y-131600000D02*
X48400000Y-131600000D01*
X49600000Y-152600000D02*
X48400000Y-152600000D01*
X48400000Y-152600000D02*
X49600000Y-152600000D01*
X49600000Y-152600000D02*
X48400000Y-152600000D01*
X49600000Y-149600000D02*
X48400000Y-149600000D01*
X48400000Y-149600000D02*
X49600000Y-149600000D01*
X49600000Y-149600000D02*
X48400000Y-149600000D01*
X49600000Y-125600000D02*
X48400000Y-125600000D01*
X48400000Y-125600000D02*
X49600000Y-125600000D01*
X49600000Y-125600000D02*
X48400000Y-125600000D01*
X49600000Y-146600000D02*
X48400000Y-146600000D01*
X48400000Y-146600000D02*
X49600000Y-146600000D01*
X49600000Y-146600000D02*
X48400000Y-146600000D01*
X49600000Y-122600000D02*
X48400000Y-122600000D01*
X48400000Y-122600000D02*
X49600000Y-122600000D01*
X49600000Y-122600000D02*
X48400000Y-122600000D01*
X49600000Y-143600000D02*
X48400000Y-143600000D01*
X48400000Y-143600000D02*
X49600000Y-143600000D01*
X49600000Y-143600000D02*
X48400000Y-143600000D01*
X49600000Y-119600000D02*
X48400000Y-119600000D01*
X48400000Y-119600000D02*
X49600000Y-119600000D01*
X49600000Y-119600000D02*
X48400000Y-119600000D01*
X49600000Y-140600000D02*
X48400000Y-140600000D01*
X48400000Y-140600000D02*
X49600000Y-140600000D01*
X49600000Y-140600000D02*
X48400000Y-140600000D01*
X49600000Y-116600000D02*
X48400000Y-116600000D01*
X48400000Y-116600000D02*
X49600000Y-116600000D01*
X49600000Y-116600000D02*
X48400000Y-116600000D01*
X49600000Y-137600000D02*
X48400000Y-137600000D01*
X48400000Y-137600000D02*
X49600000Y-137600000D01*
X49600000Y-137600000D02*
X48400000Y-137600000D01*
X49600000Y-113600000D02*
X48400000Y-113600000D01*
X48400000Y-113600000D02*
X49600000Y-113600000D01*
X49600000Y-113600000D02*
X48400000Y-113600000D01*
X47600000Y-158600000D02*
X46400000Y-158600000D01*
X46400000Y-158600000D02*
X47600000Y-158600000D01*
X47600000Y-158600000D02*
X46400000Y-158600000D01*
X47600000Y-134600000D02*
X46400000Y-134600000D01*
X46400000Y-134600000D02*
X47600000Y-134600000D01*
X47600000Y-134600000D02*
X46400000Y-134600000D01*
X47600000Y-155600000D02*
X46400000Y-155600000D01*
X46400000Y-155600000D02*
X47600000Y-155600000D01*
X47600000Y-155600000D02*
X46400000Y-155600000D01*
X47600000Y-131600000D02*
X46400000Y-131600000D01*
X46400000Y-131600000D02*
X47600000Y-131600000D01*
X47600000Y-131600000D02*
X46400000Y-131600000D01*
X47600000Y-152600000D02*
X46400000Y-152600000D01*
X46400000Y-152600000D02*
X47600000Y-152600000D01*
X47600000Y-152600000D02*
X46400000Y-152600000D01*
X47600000Y-128600000D02*
X46400000Y-128600000D01*
X46400000Y-128600000D02*
X47600000Y-128600000D01*
X47600000Y-128600000D02*
X46400000Y-128600000D01*
X47600000Y-149600000D02*
X46400000Y-149600000D01*
X46400000Y-149600000D02*
X47600000Y-149600000D01*
X47600000Y-149600000D02*
X46400000Y-149600000D01*
X47600000Y-125600000D02*
X46400000Y-125600000D01*
X46400000Y-125600000D02*
X47600000Y-125600000D01*
X47600000Y-125600000D02*
X46400000Y-125600000D01*
X47600000Y-146600000D02*
X46400000Y-146600000D01*
X46400000Y-146600000D02*
X47600000Y-146600000D01*
X47600000Y-146600000D02*
X46400000Y-146600000D01*
X47600000Y-122600000D02*
X46400000Y-122600000D01*
X46400000Y-122600000D02*
X47600000Y-122600000D01*
X47600000Y-122600000D02*
X46400000Y-122600000D01*
X47600000Y-143600000D02*
X46400000Y-143600000D01*
X46400000Y-143600000D02*
X47600000Y-143600000D01*
X47600000Y-143600000D02*
X46400000Y-143600000D01*
X47600000Y-119600000D02*
X46400000Y-119600000D01*
X46400000Y-119600000D02*
X47600000Y-119600000D01*
X47600000Y-119600000D02*
X46400000Y-119600000D01*
X47600000Y-140600000D02*
X46400000Y-140600000D01*
X46400000Y-140600000D02*
X47600000Y-140600000D01*
X47600000Y-140600000D02*
X46400000Y-140600000D01*
X47600000Y-116600000D02*
X46400000Y-116600000D01*
X46400000Y-116600000D02*
X47600000Y-116600000D01*
X47600000Y-116600000D02*
X46400000Y-116600000D01*
X47600000Y-137600000D02*
X46400000Y-137600000D01*
X46400000Y-137600000D02*
X47600000Y-137600000D01*
X47600000Y-137600000D02*
X46400000Y-137600000D01*
X47600000Y-113600000D02*
X46400000Y-113600000D01*
X46400000Y-113600000D02*
X47600000Y-113600000D01*
X47600000Y-113600000D02*
X46400000Y-113600000D01*
X45600000Y-158600000D02*
X44400000Y-158600000D01*
X44400000Y-158600000D02*
X45600000Y-158600000D01*
X45600000Y-158600000D02*
X44400000Y-158600000D01*
X45600000Y-134600000D02*
X44400000Y-134600000D01*
X44400000Y-134600000D02*
X45600000Y-134600000D01*
X45600000Y-134600000D02*
X44400000Y-134600000D01*
X45600000Y-155600000D02*
X44400000Y-155600000D01*
X44400000Y-155600000D02*
X45600000Y-155600000D01*
X45600000Y-155600000D02*
X44400000Y-155600000D01*
X45600000Y-131600000D02*
X44400000Y-131600000D01*
X44400000Y-131600000D02*
X45600000Y-131600000D01*
X45600000Y-131600000D02*
X44400000Y-131600000D01*
X45600000Y-152600000D02*
X44400000Y-152600000D01*
X44400000Y-152600000D02*
X45600000Y-152600000D01*
X45600000Y-152600000D02*
X44400000Y-152600000D01*
X45600000Y-128600000D02*
X44400000Y-128600000D01*
X44400000Y-128600000D02*
X45600000Y-128600000D01*
X45600000Y-128600000D02*
X44400000Y-128600000D01*
X45600000Y-149600000D02*
X44400000Y-149600000D01*
X44400000Y-149600000D02*
X45600000Y-149600000D01*
X45600000Y-149600000D02*
X44400000Y-149600000D01*
X45600000Y-125600000D02*
X44400000Y-125600000D01*
X44400000Y-125600000D02*
X45600000Y-125600000D01*
X45600000Y-125600000D02*
X44400000Y-125600000D01*
X45600000Y-146600000D02*
X44400000Y-146600000D01*
X44400000Y-146600000D02*
X45600000Y-146600000D01*
X45600000Y-146600000D02*
X44400000Y-146600000D01*
X45600000Y-122600000D02*
X44400000Y-122600000D01*
X44400000Y-122600000D02*
X45600000Y-122600000D01*
X45600000Y-122600000D02*
X44400000Y-122600000D01*
X45600000Y-143600000D02*
X44400000Y-143600000D01*
X44400000Y-143600000D02*
X45600000Y-143600000D01*
X45600000Y-143600000D02*
X44400000Y-143600000D01*
X45600000Y-119600000D02*
X44400000Y-119600000D01*
X44400000Y-119600000D02*
X45600000Y-119600000D01*
X45600000Y-119600000D02*
X44400000Y-119600000D01*
X45600000Y-116600000D02*
X44400000Y-116600000D01*
X44400000Y-116600000D02*
X45600000Y-116600000D01*
X45600000Y-116600000D02*
X44400000Y-116600000D01*
X45600000Y-137600000D02*
X44400000Y-137600000D01*
X44400000Y-137600000D02*
X45600000Y-137600000D01*
X45600000Y-137600000D02*
X44400000Y-137600000D01*
X45600000Y-113600000D02*
X44400000Y-113600000D01*
X44400000Y-113600000D02*
X45600000Y-113600000D01*
X45600000Y-113600000D02*
X44400000Y-113600000D01*
D10*
X50538095Y-178052380D02*
X50538095Y-178861904D01*
X50585714Y-178957142D01*
X50633333Y-179004761D01*
X50728571Y-179052380D01*
X50919047Y-179052380D01*
X51014285Y-179004761D01*
X51061904Y-178957142D01*
X51109523Y-178861904D01*
X51109523Y-178052380D01*
X51776190Y-178052380D02*
X51871428Y-178052380D01*
X51966666Y-178100000D01*
X52014285Y-178147619D01*
X52061904Y-178242857D01*
X52109523Y-178433333D01*
X52109523Y-178671428D01*
X52061904Y-178861904D01*
X52014285Y-178957142D01*
X51966666Y-179004761D01*
X51871428Y-179052380D01*
X51776190Y-179052380D01*
X51680952Y-179004761D01*
X51633333Y-178957142D01*
X51585714Y-178861904D01*
X51538095Y-178671428D01*
X51538095Y-178433333D01*
X51585714Y-178242857D01*
X51633333Y-178147619D01*
X51680952Y-178100000D01*
X51776190Y-178052380D01*
X128490476Y-180752380D02*
X128490476Y-179752380D01*
X128823809Y-180466666D01*
X129157142Y-179752380D01*
X129157142Y-180752380D01*
X130157142Y-180752380D02*
X129585714Y-180752380D01*
X129871428Y-180752380D02*
X129871428Y-179752380D01*
X129776190Y-179895238D01*
X129680952Y-179990476D01*
X129585714Y-180038095D01*
X127538095Y-171052380D02*
X127538095Y-171861904D01*
X127585714Y-171957142D01*
X127633333Y-172004761D01*
X127728571Y-172052380D01*
X127919047Y-172052380D01*
X128014285Y-172004761D01*
X128061904Y-171957142D01*
X128109523Y-171861904D01*
X128109523Y-171052380D01*
X128633333Y-172052380D02*
X128823809Y-172052380D01*
X128919047Y-172004761D01*
X128966666Y-171957142D01*
X129061904Y-171814285D01*
X129109523Y-171623809D01*
X129109523Y-171242857D01*
X129061904Y-171147619D01*
X129014285Y-171100000D01*
X128919047Y-171052380D01*
X128728571Y-171052380D01*
X128633333Y-171100000D01*
X128585714Y-171147619D01*
X128538095Y-171242857D01*
X128538095Y-171480952D01*
X128585714Y-171576190D01*
X128633333Y-171623809D01*
X128728571Y-171671428D01*
X128919047Y-171671428D01*
X129014285Y-171623809D01*
X129061904Y-171576190D01*
X129109523Y-171480952D01*
X131438095Y-153852380D02*
X131438095Y-154661904D01*
X131485714Y-154757142D01*
X131533333Y-154804761D01*
X131628571Y-154852380D01*
X131819047Y-154852380D01*
X131914285Y-154804761D01*
X131961904Y-154757142D01*
X132009523Y-154661904D01*
X132009523Y-153852380D01*
X132628571Y-154280952D02*
X132533333Y-154233333D01*
X132485714Y-154185714D01*
X132438095Y-154090476D01*
X132438095Y-154042857D01*
X132485714Y-153947619D01*
X132533333Y-153900000D01*
X132628571Y-153852380D01*
X132819047Y-153852380D01*
X132914285Y-153900000D01*
X132961904Y-153947619D01*
X133009523Y-154042857D01*
X133009523Y-154090476D01*
X132961904Y-154185714D01*
X132914285Y-154233333D01*
X132819047Y-154280952D01*
X132628571Y-154280952D01*
X132533333Y-154328571D01*
X132485714Y-154376190D01*
X132438095Y-154471428D01*
X132438095Y-154661904D01*
X132485714Y-154757142D01*
X132533333Y-154804761D01*
X132628571Y-154852380D01*
X132819047Y-154852380D01*
X132914285Y-154804761D01*
X132961904Y-154757142D01*
X133009523Y-154661904D01*
X133009523Y-154471428D01*
X132961904Y-154376190D01*
X132914285Y-154328571D01*
X132819047Y-154280952D01*
X130866666Y-151052380D02*
X130866666Y-151766666D01*
X130819047Y-151909523D01*
X130723809Y-152004761D01*
X130580952Y-152052380D01*
X130485714Y-152052380D01*
X131866666Y-152052380D02*
X131295238Y-152052380D01*
X131580952Y-152052380D02*
X131580952Y-151052380D01*
X131485714Y-151195238D01*
X131390476Y-151290476D01*
X131295238Y-151338095D01*
X114038095Y-115152380D02*
X114038095Y-115961904D01*
X114085714Y-116057142D01*
X114133333Y-116104761D01*
X114228571Y-116152380D01*
X114419047Y-116152380D01*
X114514285Y-116104761D01*
X114561904Y-116057142D01*
X114609523Y-115961904D01*
X114609523Y-115152380D01*
X115561904Y-115152380D02*
X115085714Y-115152380D01*
X115038095Y-115628571D01*
X115085714Y-115580952D01*
X115180952Y-115533333D01*
X115419047Y-115533333D01*
X115514285Y-115580952D01*
X115561904Y-115628571D01*
X115609523Y-115723809D01*
X115609523Y-115961904D01*
X115561904Y-116057142D01*
X115514285Y-116104761D01*
X115419047Y-116152380D01*
X115180952Y-116152380D01*
X115085714Y-116104761D01*
X115038095Y-116057142D01*
X122938095Y-137252380D02*
X122938095Y-138061904D01*
X122985714Y-138157142D01*
X123033333Y-138204761D01*
X123128571Y-138252380D01*
X123319047Y-138252380D01*
X123414285Y-138204761D01*
X123461904Y-138157142D01*
X123509523Y-138061904D01*
X123509523Y-137252380D01*
X123890476Y-137252380D02*
X124557142Y-137252380D01*
X124128571Y-138252380D01*
X121297700Y-135370980D02*
X121297700Y-135609076D01*
X121059604Y-135513838D02*
X121297700Y-135609076D01*
X121535795Y-135513838D01*
X121154842Y-135799552D02*
X121297700Y-135609076D01*
X121440557Y-135799552D01*
X121297700Y-135370980D02*
X121297700Y-135609076D01*
X121059604Y-135513838D02*
X121297700Y-135609076D01*
X121535795Y-135513838D01*
X121154842Y-135799552D02*
X121297700Y-135609076D01*
X121440557Y-135799552D01*
X111838095Y-177452380D02*
X111838095Y-178261904D01*
X111885714Y-178357142D01*
X111933333Y-178404761D01*
X112028571Y-178452380D01*
X112219047Y-178452380D01*
X112314285Y-178404761D01*
X112361904Y-178357142D01*
X112409523Y-178261904D01*
X112409523Y-177452380D01*
X113314285Y-177452380D02*
X113123809Y-177452380D01*
X113028571Y-177500000D01*
X112980952Y-177547619D01*
X112885714Y-177690476D01*
X112838095Y-177880952D01*
X112838095Y-178261904D01*
X112885714Y-178357142D01*
X112933333Y-178404761D01*
X113028571Y-178452380D01*
X113219047Y-178452380D01*
X113314285Y-178404761D01*
X113361904Y-178357142D01*
X113409523Y-178261904D01*
X113409523Y-178023809D01*
X113361904Y-177928571D01*
X113314285Y-177880952D01*
X113219047Y-177833333D01*
X113028571Y-177833333D01*
X112933333Y-177880952D01*
X112885714Y-177928571D01*
X112838095Y-178023809D01*
X98538095Y-178052380D02*
X98538095Y-178861904D01*
X98585714Y-178957142D01*
X98633333Y-179004761D01*
X98728571Y-179052380D01*
X98919047Y-179052380D01*
X99014285Y-179004761D01*
X99061904Y-178957142D01*
X99109523Y-178861904D01*
X99109523Y-178052380D01*
X99490476Y-178052380D02*
X100109523Y-178052380D01*
X99776190Y-178433333D01*
X99919047Y-178433333D01*
X100014285Y-178480952D01*
X100061904Y-178528571D01*
X100109523Y-178623809D01*
X100109523Y-178861904D01*
X100061904Y-178957142D01*
X100014285Y-179004761D01*
X99919047Y-179052380D01*
X99633333Y-179052380D01*
X99538095Y-179004761D01*
X99490476Y-178957142D01*
X125904761Y-105047619D02*
X125809523Y-105000000D01*
X125714285Y-104904761D01*
X125571428Y-104761904D01*
X125476190Y-104714285D01*
X125380952Y-104714285D01*
X125428571Y-104952380D02*
X125333333Y-104904761D01*
X125238095Y-104809523D01*
X125190476Y-104619047D01*
X125190476Y-104285714D01*
X125238095Y-104095238D01*
X125333333Y-104000000D01*
X125428571Y-103952380D01*
X125619047Y-103952380D01*
X125714285Y-104000000D01*
X125809523Y-104095238D01*
X125857142Y-104285714D01*
X125857142Y-104619047D01*
X125809523Y-104809523D01*
X125714285Y-104904761D01*
X125619047Y-104952380D01*
X125428571Y-104952380D01*
X126761904Y-103952380D02*
X126285714Y-103952380D01*
X126238095Y-104428571D01*
X126285714Y-104380952D01*
X126380952Y-104333333D01*
X126619047Y-104333333D01*
X126714285Y-104380952D01*
X126761904Y-104428571D01*
X126809523Y-104523809D01*
X126809523Y-104761904D01*
X126761904Y-104857142D01*
X126714285Y-104904761D01*
X126619047Y-104952380D01*
X126380952Y-104952380D01*
X126285714Y-104904761D01*
X126238095Y-104857142D01*
X111204761Y-113747619D02*
X111109523Y-113700000D01*
X111014285Y-113604761D01*
X110871428Y-113461904D01*
X110776190Y-113414285D01*
X110680952Y-113414285D01*
X110728571Y-113652380D02*
X110633333Y-113604761D01*
X110538095Y-113509523D01*
X110490476Y-113319047D01*
X110490476Y-112985714D01*
X110538095Y-112795238D01*
X110633333Y-112700000D01*
X110728571Y-112652380D01*
X110919047Y-112652380D01*
X111014285Y-112700000D01*
X111109523Y-112795238D01*
X111157142Y-112985714D01*
X111157142Y-113319047D01*
X111109523Y-113509523D01*
X111014285Y-113604761D01*
X110919047Y-113652380D01*
X110728571Y-113652380D01*
X111490476Y-112652380D02*
X112109523Y-112652380D01*
X111776190Y-113033333D01*
X111919047Y-113033333D01*
X112014285Y-113080952D01*
X112061904Y-113128571D01*
X112109523Y-113223809D01*
X112109523Y-113461904D01*
X112061904Y-113557142D01*
X112014285Y-113604761D01*
X111919047Y-113652380D01*
X111633333Y-113652380D01*
X111538095Y-113604761D01*
X111490476Y-113557142D01*
X116538095Y-156552380D02*
X116538095Y-157361904D01*
X116585714Y-157457142D01*
X116633333Y-157504761D01*
X116728571Y-157552380D01*
X116919047Y-157552380D01*
X117014285Y-157504761D01*
X117061904Y-157457142D01*
X117109523Y-157361904D01*
X117109523Y-156552380D01*
X118014285Y-156885714D02*
X118014285Y-157552380D01*
X117776190Y-156504761D02*
X117538095Y-157219047D01*
X118157142Y-157219047D01*
X114228571Y-159447619D02*
X114133333Y-159400000D01*
X114038095Y-159304761D01*
X113895238Y-159161904D01*
X113800000Y-159114285D01*
X113704761Y-159114285D01*
X113752380Y-159352380D02*
X113657142Y-159304761D01*
X113561904Y-159209523D01*
X113514285Y-159019047D01*
X113514285Y-158685714D01*
X113561904Y-158495238D01*
X113657142Y-158400000D01*
X113752380Y-158352380D01*
X113942857Y-158352380D01*
X114038095Y-158400000D01*
X114133333Y-158495238D01*
X114180952Y-158685714D01*
X114180952Y-159019047D01*
X114133333Y-159209523D01*
X114038095Y-159304761D01*
X113942857Y-159352380D01*
X113752380Y-159352380D01*
X115133333Y-159352380D02*
X114561904Y-159352380D01*
X114847619Y-159352380D02*
X114847619Y-158352380D01*
X114752380Y-158495238D01*
X114657142Y-158590476D01*
X114561904Y-158638095D01*
X116038095Y-158352380D02*
X115561904Y-158352380D01*
X115514285Y-158828571D01*
X115561904Y-158780952D01*
X115657142Y-158733333D01*
X115895238Y-158733333D01*
X115990476Y-158780952D01*
X116038095Y-158828571D01*
X116085714Y-158923809D01*
X116085714Y-159161904D01*
X116038095Y-159257142D01*
X115990476Y-159304761D01*
X115895238Y-159352380D01*
X115657142Y-159352380D01*
X115561904Y-159304761D01*
X115514285Y-159257142D01*
X109028571Y-159447619D02*
X108933333Y-159400000D01*
X108838095Y-159304761D01*
X108695238Y-159161904D01*
X108600000Y-159114285D01*
X108504761Y-159114285D01*
X108552380Y-159352380D02*
X108457142Y-159304761D01*
X108361904Y-159209523D01*
X108314285Y-159019047D01*
X108314285Y-158685714D01*
X108361904Y-158495238D01*
X108457142Y-158400000D01*
X108552380Y-158352380D01*
X108742857Y-158352380D01*
X108838095Y-158400000D01*
X108933333Y-158495238D01*
X108980952Y-158685714D01*
X108980952Y-159019047D01*
X108933333Y-159209523D01*
X108838095Y-159304761D01*
X108742857Y-159352380D01*
X108552380Y-159352380D01*
X109933333Y-159352380D02*
X109361904Y-159352380D01*
X109647619Y-159352380D02*
X109647619Y-158352380D01*
X109552380Y-158495238D01*
X109457142Y-158590476D01*
X109361904Y-158638095D01*
X110790476Y-158685714D02*
X110790476Y-159352380D01*
X110552380Y-158304761D02*
X110314285Y-159019047D01*
X110933333Y-159019047D01*
X119628571Y-159747619D02*
X119533333Y-159700000D01*
X119438095Y-159604761D01*
X119295238Y-159461904D01*
X119200000Y-159414285D01*
X119104761Y-159414285D01*
X119152380Y-159652380D02*
X119057142Y-159604761D01*
X118961904Y-159509523D01*
X118914285Y-159319047D01*
X118914285Y-158985714D01*
X118961904Y-158795238D01*
X119057142Y-158700000D01*
X119152380Y-158652380D01*
X119342857Y-158652380D01*
X119438095Y-158700000D01*
X119533333Y-158795238D01*
X119580952Y-158985714D01*
X119580952Y-159319047D01*
X119533333Y-159509523D01*
X119438095Y-159604761D01*
X119342857Y-159652380D01*
X119152380Y-159652380D01*
X120533333Y-159652380D02*
X119961904Y-159652380D01*
X120247619Y-159652380D02*
X120247619Y-158652380D01*
X120152380Y-158795238D01*
X120057142Y-158890476D01*
X119961904Y-158938095D01*
X120866666Y-158652380D02*
X121485714Y-158652380D01*
X121152380Y-159033333D01*
X121295238Y-159033333D01*
X121390476Y-159080952D01*
X121438095Y-159128571D01*
X121485714Y-159223809D01*
X121485714Y-159461904D01*
X121438095Y-159557142D01*
X121390476Y-159604761D01*
X121295238Y-159652380D01*
X121009523Y-159652380D01*
X120914285Y-159604761D01*
X120866666Y-159557142D01*
X129047619Y-161771428D02*
X129000000Y-161866666D01*
X128904761Y-161961904D01*
X128761904Y-162104761D01*
X128714285Y-162200000D01*
X128714285Y-162295238D01*
X128952380Y-162247619D02*
X128904761Y-162342857D01*
X128809523Y-162438095D01*
X128619047Y-162485714D01*
X128285714Y-162485714D01*
X128095238Y-162438095D01*
X128000000Y-162342857D01*
X127952380Y-162247619D01*
X127952380Y-162057142D01*
X128000000Y-161961904D01*
X128095238Y-161866666D01*
X128285714Y-161819047D01*
X128619047Y-161819047D01*
X128809523Y-161866666D01*
X128904761Y-161961904D01*
X128952380Y-162057142D01*
X128952380Y-162247619D01*
X128952380Y-160866666D02*
X128952380Y-161438095D01*
X128952380Y-161152380D02*
X127952380Y-161152380D01*
X128095238Y-161247619D01*
X128190476Y-161342857D01*
X128238095Y-161438095D01*
X128047619Y-160485714D02*
X128000000Y-160438095D01*
X127952380Y-160342857D01*
X127952380Y-160104761D01*
X128000000Y-160009523D01*
X128047619Y-159961904D01*
X128142857Y-159914285D01*
X128238095Y-159914285D01*
X128380952Y-159961904D01*
X128952380Y-160533333D01*
X128952380Y-159914285D01*
X125428571Y-169447619D02*
X125333333Y-169400000D01*
X125238095Y-169304761D01*
X125095238Y-169161904D01*
X125000000Y-169114285D01*
X124904761Y-169114285D01*
X124952380Y-169352380D02*
X124857142Y-169304761D01*
X124761904Y-169209523D01*
X124714285Y-169019047D01*
X124714285Y-168685714D01*
X124761904Y-168495238D01*
X124857142Y-168400000D01*
X124952380Y-168352380D01*
X125142857Y-168352380D01*
X125238095Y-168400000D01*
X125333333Y-168495238D01*
X125380952Y-168685714D01*
X125380952Y-169019047D01*
X125333333Y-169209523D01*
X125238095Y-169304761D01*
X125142857Y-169352380D01*
X124952380Y-169352380D01*
X126333333Y-169352380D02*
X125761904Y-169352380D01*
X126047619Y-169352380D02*
X126047619Y-168352380D01*
X125952380Y-168495238D01*
X125857142Y-168590476D01*
X125761904Y-168638095D01*
X127285714Y-169352380D02*
X126714285Y-169352380D01*
X127000000Y-169352380D02*
X127000000Y-168352380D01*
X126904761Y-168495238D01*
X126809523Y-168590476D01*
X126714285Y-168638095D01*
X120528571Y-169447619D02*
X120433333Y-169400000D01*
X120338095Y-169304761D01*
X120195238Y-169161904D01*
X120100000Y-169114285D01*
X120004761Y-169114285D01*
X120052380Y-169352380D02*
X119957142Y-169304761D01*
X119861904Y-169209523D01*
X119814285Y-169019047D01*
X119814285Y-168685714D01*
X119861904Y-168495238D01*
X119957142Y-168400000D01*
X120052380Y-168352380D01*
X120242857Y-168352380D01*
X120338095Y-168400000D01*
X120433333Y-168495238D01*
X120480952Y-168685714D01*
X120480952Y-169019047D01*
X120433333Y-169209523D01*
X120338095Y-169304761D01*
X120242857Y-169352380D01*
X120052380Y-169352380D01*
X121433333Y-169352380D02*
X120861904Y-169352380D01*
X121147619Y-169352380D02*
X121147619Y-168352380D01*
X121052380Y-168495238D01*
X120957142Y-168590476D01*
X120861904Y-168638095D01*
X122052380Y-168352380D02*
X122147619Y-168352380D01*
X122242857Y-168400000D01*
X122290476Y-168447619D01*
X122338095Y-168542857D01*
X122385714Y-168733333D01*
X122385714Y-168971428D01*
X122338095Y-169161904D01*
X122290476Y-169257142D01*
X122242857Y-169304761D01*
X122147619Y-169352380D01*
X122052380Y-169352380D01*
X121957142Y-169304761D01*
X121909523Y-169257142D01*
X121861904Y-169161904D01*
X121814285Y-168971428D01*
X121814285Y-168733333D01*
X121861904Y-168542857D01*
X121909523Y-168447619D01*
X121957142Y-168400000D01*
X122052380Y-168352380D01*
X115104761Y-169347619D02*
X115009523Y-169300000D01*
X114914285Y-169204761D01*
X114771428Y-169061904D01*
X114676190Y-169014285D01*
X114580952Y-169014285D01*
X114628571Y-169252380D02*
X114533333Y-169204761D01*
X114438095Y-169109523D01*
X114390476Y-168919047D01*
X114390476Y-168585714D01*
X114438095Y-168395238D01*
X114533333Y-168300000D01*
X114628571Y-168252380D01*
X114819047Y-168252380D01*
X114914285Y-168300000D01*
X115009523Y-168395238D01*
X115057142Y-168585714D01*
X115057142Y-168919047D01*
X115009523Y-169109523D01*
X114914285Y-169204761D01*
X114819047Y-169252380D01*
X114628571Y-169252380D01*
X115533333Y-169252380D02*
X115723809Y-169252380D01*
X115819047Y-169204761D01*
X115866666Y-169157142D01*
X115961904Y-169014285D01*
X116009523Y-168823809D01*
X116009523Y-168442857D01*
X115961904Y-168347619D01*
X115914285Y-168300000D01*
X115819047Y-168252380D01*
X115628571Y-168252380D01*
X115533333Y-168300000D01*
X115485714Y-168347619D01*
X115438095Y-168442857D01*
X115438095Y-168680952D01*
X115485714Y-168776190D01*
X115533333Y-168823809D01*
X115628571Y-168871428D01*
X115819047Y-168871428D01*
X115914285Y-168823809D01*
X115961904Y-168776190D01*
X116009523Y-168680952D01*
X109104761Y-168847619D02*
X109009523Y-168800000D01*
X108914285Y-168704761D01*
X108771428Y-168561904D01*
X108676190Y-168514285D01*
X108580952Y-168514285D01*
X108628571Y-168752380D02*
X108533333Y-168704761D01*
X108438095Y-168609523D01*
X108390476Y-168419047D01*
X108390476Y-168085714D01*
X108438095Y-167895238D01*
X108533333Y-167800000D01*
X108628571Y-167752380D01*
X108819047Y-167752380D01*
X108914285Y-167800000D01*
X109009523Y-167895238D01*
X109057142Y-168085714D01*
X109057142Y-168419047D01*
X109009523Y-168609523D01*
X108914285Y-168704761D01*
X108819047Y-168752380D01*
X108628571Y-168752380D01*
X109628571Y-168180952D02*
X109533333Y-168133333D01*
X109485714Y-168085714D01*
X109438095Y-167990476D01*
X109438095Y-167942857D01*
X109485714Y-167847619D01*
X109533333Y-167800000D01*
X109628571Y-167752380D01*
X109819047Y-167752380D01*
X109914285Y-167800000D01*
X109961904Y-167847619D01*
X110009523Y-167942857D01*
X110009523Y-167990476D01*
X109961904Y-168085714D01*
X109914285Y-168133333D01*
X109819047Y-168180952D01*
X109628571Y-168180952D01*
X109533333Y-168228571D01*
X109485714Y-168276190D01*
X109438095Y-168371428D01*
X109438095Y-168561904D01*
X109485714Y-168657142D01*
X109533333Y-168704761D01*
X109628571Y-168752380D01*
X109819047Y-168752380D01*
X109914285Y-168704761D01*
X109961904Y-168657142D01*
X110009523Y-168561904D01*
X110009523Y-168371428D01*
X109961904Y-168276190D01*
X109914285Y-168228571D01*
X109819047Y-168180952D01*
X110704761Y-104847619D02*
X110609523Y-104800000D01*
X110514285Y-104704761D01*
X110371428Y-104561904D01*
X110276190Y-104514285D01*
X110180952Y-104514285D01*
X110228571Y-104752380D02*
X110133333Y-104704761D01*
X110038095Y-104609523D01*
X109990476Y-104419047D01*
X109990476Y-104085714D01*
X110038095Y-103895238D01*
X110133333Y-103800000D01*
X110228571Y-103752380D01*
X110419047Y-103752380D01*
X110514285Y-103800000D01*
X110609523Y-103895238D01*
X110657142Y-104085714D01*
X110657142Y-104419047D01*
X110609523Y-104609523D01*
X110514285Y-104704761D01*
X110419047Y-104752380D01*
X110228571Y-104752380D01*
X110990476Y-103752380D02*
X111657142Y-103752380D01*
X111228571Y-104752380D01*
X116104761Y-105147619D02*
X116009523Y-105100000D01*
X115914285Y-105004761D01*
X115771428Y-104861904D01*
X115676190Y-104814285D01*
X115580952Y-104814285D01*
X115628571Y-105052380D02*
X115533333Y-105004761D01*
X115438095Y-104909523D01*
X115390476Y-104719047D01*
X115390476Y-104385714D01*
X115438095Y-104195238D01*
X115533333Y-104100000D01*
X115628571Y-104052380D01*
X115819047Y-104052380D01*
X115914285Y-104100000D01*
X116009523Y-104195238D01*
X116057142Y-104385714D01*
X116057142Y-104719047D01*
X116009523Y-104909523D01*
X115914285Y-105004761D01*
X115819047Y-105052380D01*
X115628571Y-105052380D01*
X116914285Y-104052380D02*
X116723809Y-104052380D01*
X116628571Y-104100000D01*
X116580952Y-104147619D01*
X116485714Y-104290476D01*
X116438095Y-104480952D01*
X116438095Y-104861904D01*
X116485714Y-104957142D01*
X116533333Y-105004761D01*
X116628571Y-105052380D01*
X116819047Y-105052380D01*
X116914285Y-105004761D01*
X116961904Y-104957142D01*
X117009523Y-104861904D01*
X117009523Y-104623809D01*
X116961904Y-104528571D01*
X116914285Y-104480952D01*
X116819047Y-104433333D01*
X116628571Y-104433333D01*
X116533333Y-104480952D01*
X116485714Y-104528571D01*
X116438095Y-104623809D01*
X121504761Y-104747619D02*
X121409523Y-104700000D01*
X121314285Y-104604761D01*
X121171428Y-104461904D01*
X121076190Y-104414285D01*
X120980952Y-104414285D01*
X121028571Y-104652380D02*
X120933333Y-104604761D01*
X120838095Y-104509523D01*
X120790476Y-104319047D01*
X120790476Y-103985714D01*
X120838095Y-103795238D01*
X120933333Y-103700000D01*
X121028571Y-103652380D01*
X121219047Y-103652380D01*
X121314285Y-103700000D01*
X121409523Y-103795238D01*
X121457142Y-103985714D01*
X121457142Y-104319047D01*
X121409523Y-104509523D01*
X121314285Y-104604761D01*
X121219047Y-104652380D01*
X121028571Y-104652380D01*
X122314285Y-103985714D02*
X122314285Y-104652380D01*
X122076190Y-103604761D02*
X121838095Y-104319047D01*
X122457142Y-104319047D01*
X116104761Y-113547619D02*
X116009523Y-113500000D01*
X115914285Y-113404761D01*
X115771428Y-113261904D01*
X115676190Y-113214285D01*
X115580952Y-113214285D01*
X115628571Y-113452380D02*
X115533333Y-113404761D01*
X115438095Y-113309523D01*
X115390476Y-113119047D01*
X115390476Y-112785714D01*
X115438095Y-112595238D01*
X115533333Y-112500000D01*
X115628571Y-112452380D01*
X115819047Y-112452380D01*
X115914285Y-112500000D01*
X116009523Y-112595238D01*
X116057142Y-112785714D01*
X116057142Y-113119047D01*
X116009523Y-113309523D01*
X115914285Y-113404761D01*
X115819047Y-113452380D01*
X115628571Y-113452380D01*
X116438095Y-112547619D02*
X116485714Y-112500000D01*
X116580952Y-112452380D01*
X116819047Y-112452380D01*
X116914285Y-112500000D01*
X116961904Y-112547619D01*
X117009523Y-112642857D01*
X117009523Y-112738095D01*
X116961904Y-112880952D01*
X116390476Y-113452380D01*
X117009523Y-113452380D01*
X121204761Y-113547619D02*
X121109523Y-113500000D01*
X121014285Y-113404761D01*
X120871428Y-113261904D01*
X120776190Y-113214285D01*
X120680952Y-113214285D01*
X120728571Y-113452380D02*
X120633333Y-113404761D01*
X120538095Y-113309523D01*
X120490476Y-113119047D01*
X120490476Y-112785714D01*
X120538095Y-112595238D01*
X120633333Y-112500000D01*
X120728571Y-112452380D01*
X120919047Y-112452380D01*
X121014285Y-112500000D01*
X121109523Y-112595238D01*
X121157142Y-112785714D01*
X121157142Y-113119047D01*
X121109523Y-113309523D01*
X121014285Y-113404761D01*
X120919047Y-113452380D01*
X120728571Y-113452380D01*
X122109523Y-113452380D02*
X121538095Y-113452380D01*
X121823809Y-113452380D02*
X121823809Y-112452380D01*
X121728571Y-112595238D01*
X121633333Y-112690476D01*
X121538095Y-112738095D01*
X126004761Y-113447619D02*
X125909523Y-113400000D01*
X125814285Y-113304761D01*
X125671428Y-113161904D01*
X125576190Y-113114285D01*
X125480952Y-113114285D01*
X125528571Y-113352380D02*
X125433333Y-113304761D01*
X125338095Y-113209523D01*
X125290476Y-113019047D01*
X125290476Y-112685714D01*
X125338095Y-112495238D01*
X125433333Y-112400000D01*
X125528571Y-112352380D01*
X125719047Y-112352380D01*
X125814285Y-112400000D01*
X125909523Y-112495238D01*
X125957142Y-112685714D01*
X125957142Y-113019047D01*
X125909523Y-113209523D01*
X125814285Y-113304761D01*
X125719047Y-113352380D01*
X125528571Y-113352380D01*
X126576190Y-112352380D02*
X126671428Y-112352380D01*
X126766666Y-112400000D01*
X126814285Y-112447619D01*
X126861904Y-112542857D01*
X126909523Y-112733333D01*
X126909523Y-112971428D01*
X126861904Y-113161904D01*
X126814285Y-113257142D01*
X126766666Y-113304761D01*
X126671428Y-113352380D01*
X126576190Y-113352380D01*
X126480952Y-113304761D01*
X126433333Y-113257142D01*
X126385714Y-113161904D01*
X126338095Y-112971428D01*
X126338095Y-112733333D01*
X126385714Y-112542857D01*
X126433333Y-112447619D01*
X126480952Y-112400000D01*
X126576190Y-112352380D01*
X66538095Y-178152380D02*
X66538095Y-178961904D01*
X66585714Y-179057142D01*
X66633333Y-179104761D01*
X66728571Y-179152380D01*
X66919047Y-179152380D01*
X67014285Y-179104761D01*
X67061904Y-179057142D01*
X67109523Y-178961904D01*
X67109523Y-178152380D01*
X68109523Y-179152380D02*
X67538095Y-179152380D01*
X67823809Y-179152380D02*
X67823809Y-178152380D01*
X67728571Y-178295238D01*
X67633333Y-178390476D01*
X67538095Y-178438095D01*
X82538095Y-178152380D02*
X82538095Y-178961904D01*
X82585714Y-179057142D01*
X82633333Y-179104761D01*
X82728571Y-179152380D01*
X82919047Y-179152380D01*
X83014285Y-179104761D01*
X83061904Y-179057142D01*
X83109523Y-178961904D01*
X83109523Y-178152380D01*
X83538095Y-178247619D02*
X83585714Y-178200000D01*
X83680952Y-178152380D01*
X83919047Y-178152380D01*
X84014285Y-178200000D01*
X84061904Y-178247619D01*
X84109523Y-178342857D01*
X84109523Y-178438095D01*
X84061904Y-178580952D01*
X83490476Y-179152380D01*
X84109523Y-179152380D01*
M02*
