G04 #@! TF.GenerationSoftware,KiCad,Pcbnew,(5.1.5-0-10_14)*
G04 #@! TF.CreationDate,2020-05-10T16:42:09+01:00*
G04 #@! TF.ProjectId,fft8051,66667438-3035-4312-9e6b-696361645f70,rev?*
G04 #@! TF.SameCoordinates,Original*
G04 #@! TF.FileFunction,Soldermask,Bot*
G04 #@! TF.FilePolarity,Negative*
%FSLAX46Y46*%
G04 Gerber Fmt 4.6, Leading zero omitted, Abs format (unit mm)*
G04 Created by KiCad (PCBNEW (5.1.5-0-10_14)) date 2020-05-10 16:42:09*
%MOMM*%
%LPD*%
G04 APERTURE LIST*
%ADD10C,0.100000*%
G04 APERTURE END LIST*
D10*
G36*
X132810721Y-178470174D02*
G01*
X132910995Y-178511709D01*
X132910996Y-178511710D01*
X133001242Y-178572010D01*
X133077990Y-178648758D01*
X133077991Y-178648760D01*
X133138291Y-178739005D01*
X133179826Y-178839279D01*
X133201000Y-178945730D01*
X133201000Y-179054270D01*
X133179826Y-179160721D01*
X133138291Y-179260995D01*
X133138290Y-179260996D01*
X133077990Y-179351242D01*
X133001242Y-179427990D01*
X132955812Y-179458345D01*
X132910995Y-179488291D01*
X132810721Y-179529826D01*
X132704270Y-179551000D01*
X132595730Y-179551000D01*
X132489279Y-179529826D01*
X132389005Y-179488291D01*
X132344188Y-179458345D01*
X132298758Y-179427990D01*
X132222010Y-179351242D01*
X132161710Y-179260996D01*
X132161709Y-179260995D01*
X132120174Y-179160721D01*
X132099000Y-179054270D01*
X132099000Y-178945730D01*
X132120174Y-178839279D01*
X132161709Y-178739005D01*
X132222009Y-178648760D01*
X132222010Y-178648758D01*
X132298758Y-178572010D01*
X132389004Y-178511710D01*
X132389005Y-178511709D01*
X132489279Y-178470174D01*
X132595730Y-178449000D01*
X132704270Y-178449000D01*
X132810721Y-178470174D01*
G37*
G36*
X131410721Y-178470174D02*
G01*
X131510995Y-178511709D01*
X131510996Y-178511710D01*
X131601242Y-178572010D01*
X131677990Y-178648758D01*
X131677991Y-178648760D01*
X131738291Y-178739005D01*
X131779826Y-178839279D01*
X131801000Y-178945730D01*
X131801000Y-179054270D01*
X131779826Y-179160721D01*
X131738291Y-179260995D01*
X131738290Y-179260996D01*
X131677990Y-179351242D01*
X131601242Y-179427990D01*
X131555812Y-179458345D01*
X131510995Y-179488291D01*
X131410721Y-179529826D01*
X131304270Y-179551000D01*
X131195730Y-179551000D01*
X131089279Y-179529826D01*
X130989005Y-179488291D01*
X130944188Y-179458345D01*
X130898758Y-179427990D01*
X130822010Y-179351242D01*
X130761710Y-179260996D01*
X130761709Y-179260995D01*
X130720174Y-179160721D01*
X130699000Y-179054270D01*
X130699000Y-178945730D01*
X130720174Y-178839279D01*
X130761709Y-178739005D01*
X130822009Y-178648760D01*
X130822010Y-178648758D01*
X130898758Y-178572010D01*
X130989004Y-178511710D01*
X130989005Y-178511709D01*
X131089279Y-178470174D01*
X131195730Y-178449000D01*
X131304270Y-178449000D01*
X131410721Y-178470174D01*
G37*
G36*
X115401000Y-176051000D02*
G01*
X114599000Y-176051000D01*
X114599000Y-174949000D01*
X115401000Y-174949000D01*
X115401000Y-176051000D01*
G37*
G36*
X113901000Y-176051000D02*
G01*
X113099000Y-176051000D01*
X113099000Y-174949000D01*
X113901000Y-174949000D01*
X113901000Y-176051000D01*
G37*
G36*
X115401000Y-174051000D02*
G01*
X114599000Y-174051000D01*
X114599000Y-172949000D01*
X115401000Y-172949000D01*
X115401000Y-174051000D01*
G37*
G36*
X113901000Y-174051000D02*
G01*
X113099000Y-174051000D01*
X113099000Y-172949000D01*
X113901000Y-172949000D01*
X113901000Y-174051000D01*
G37*
G36*
X115401000Y-172051000D02*
G01*
X114599000Y-172051000D01*
X114599000Y-170949000D01*
X115401000Y-170949000D01*
X115401000Y-172051000D01*
G37*
G36*
X113901000Y-172051000D02*
G01*
X113099000Y-172051000D01*
X113099000Y-170949000D01*
X113901000Y-170949000D01*
X113901000Y-172051000D01*
G37*
G36*
X87851000Y-169901000D02*
G01*
X86749000Y-169901000D01*
X86749000Y-169099000D01*
X87851000Y-169099000D01*
X87851000Y-169901000D01*
G37*
G36*
X86251000Y-169901000D02*
G01*
X85149000Y-169901000D01*
X85149000Y-169099000D01*
X86251000Y-169099000D01*
X86251000Y-169901000D01*
G37*
G36*
X84651000Y-169901000D02*
G01*
X83549000Y-169901000D01*
X83549000Y-169099000D01*
X84651000Y-169099000D01*
X84651000Y-169901000D01*
G37*
G36*
X83051000Y-169901000D02*
G01*
X81949000Y-169901000D01*
X81949000Y-169099000D01*
X83051000Y-169099000D01*
X83051000Y-169901000D01*
G37*
G36*
X81451000Y-169901000D02*
G01*
X80349000Y-169901000D01*
X80349000Y-169099000D01*
X81451000Y-169099000D01*
X81451000Y-169901000D01*
G37*
G36*
X77751000Y-169901000D02*
G01*
X76649000Y-169901000D01*
X76649000Y-169099000D01*
X77751000Y-169099000D01*
X77751000Y-169901000D01*
G37*
G36*
X75151000Y-169901000D02*
G01*
X74049000Y-169901000D01*
X74049000Y-169099000D01*
X75151000Y-169099000D01*
X75151000Y-169901000D01*
G37*
G36*
X73551000Y-169901000D02*
G01*
X72449000Y-169901000D01*
X72449000Y-169099000D01*
X73551000Y-169099000D01*
X73551000Y-169901000D01*
G37*
G36*
X71951000Y-169901000D02*
G01*
X70849000Y-169901000D01*
X70849000Y-169099000D01*
X71951000Y-169099000D01*
X71951000Y-169901000D01*
G37*
G36*
X70351000Y-169901000D02*
G01*
X69249000Y-169901000D01*
X69249000Y-169099000D01*
X70351000Y-169099000D01*
X70351000Y-169901000D01*
G37*
G36*
X68751000Y-169901000D02*
G01*
X67649000Y-169901000D01*
X67649000Y-169099000D01*
X68751000Y-169099000D01*
X68751000Y-169901000D01*
G37*
G36*
X67151000Y-169901000D02*
G01*
X66049000Y-169901000D01*
X66049000Y-169099000D01*
X67151000Y-169099000D01*
X67151000Y-169901000D01*
G37*
G36*
X65551000Y-169901000D02*
G01*
X64449000Y-169901000D01*
X64449000Y-169099000D01*
X65551000Y-169099000D01*
X65551000Y-169901000D01*
G37*
G36*
X61951000Y-169901000D02*
G01*
X60849000Y-169901000D01*
X60849000Y-169099000D01*
X61951000Y-169099000D01*
X61951000Y-169901000D01*
G37*
G36*
X58751000Y-169901000D02*
G01*
X57649000Y-169901000D01*
X57649000Y-169099000D01*
X58751000Y-169099000D01*
X58751000Y-169901000D01*
G37*
G36*
X57151000Y-169901000D02*
G01*
X56049000Y-169901000D01*
X56049000Y-169099000D01*
X57151000Y-169099000D01*
X57151000Y-169901000D01*
G37*
G36*
X55551000Y-169901000D02*
G01*
X54449000Y-169901000D01*
X54449000Y-169099000D01*
X55551000Y-169099000D01*
X55551000Y-169901000D01*
G37*
G36*
X53951000Y-169901000D02*
G01*
X52849000Y-169901000D01*
X52849000Y-169099000D01*
X53951000Y-169099000D01*
X53951000Y-169901000D01*
G37*
G36*
X52351000Y-169901000D02*
G01*
X51249000Y-169901000D01*
X51249000Y-169099000D01*
X52351000Y-169099000D01*
X52351000Y-169901000D01*
G37*
G36*
X50751000Y-169901000D02*
G01*
X49649000Y-169901000D01*
X49649000Y-169099000D01*
X50751000Y-169099000D01*
X50751000Y-169901000D01*
G37*
G36*
X49151000Y-169901000D02*
G01*
X48049000Y-169901000D01*
X48049000Y-169099000D01*
X49151000Y-169099000D01*
X49151000Y-169901000D01*
G37*
G36*
X45751000Y-169901000D02*
G01*
X44649000Y-169901000D01*
X44649000Y-169099000D01*
X45751000Y-169099000D01*
X45751000Y-169901000D01*
G37*
G36*
X93851000Y-169901000D02*
G01*
X92749000Y-169901000D01*
X92749000Y-169099000D01*
X93851000Y-169099000D01*
X93851000Y-169901000D01*
G37*
G36*
X91051000Y-169901000D02*
G01*
X89949000Y-169901000D01*
X89949000Y-169099000D01*
X91051000Y-169099000D01*
X91051000Y-169901000D01*
G37*
G36*
X102801000Y-169901000D02*
G01*
X101699000Y-169901000D01*
X101699000Y-169099000D01*
X102801000Y-169099000D01*
X102801000Y-169901000D01*
G37*
G36*
X101051000Y-169901000D02*
G01*
X99949000Y-169901000D01*
X99949000Y-169099000D01*
X101051000Y-169099000D01*
X101051000Y-169901000D01*
G37*
G36*
X99301000Y-169901000D02*
G01*
X98199000Y-169901000D01*
X98199000Y-169099000D01*
X99301000Y-169099000D01*
X99301000Y-169901000D01*
G37*
G36*
X97551000Y-169901000D02*
G01*
X96449000Y-169901000D01*
X96449000Y-169099000D01*
X97551000Y-169099000D01*
X97551000Y-169901000D01*
G37*
G36*
X89451000Y-169901000D02*
G01*
X88349000Y-169901000D01*
X88349000Y-169099000D01*
X89451000Y-169099000D01*
X89451000Y-169901000D01*
G37*
G36*
X95801000Y-169901000D02*
G01*
X94699000Y-169901000D01*
X94699000Y-169099000D01*
X95801000Y-169099000D01*
X95801000Y-169901000D01*
G37*
G36*
X67151000Y-168401000D02*
G01*
X66049000Y-168401000D01*
X66049000Y-167599000D01*
X67151000Y-167599000D01*
X67151000Y-168401000D01*
G37*
G36*
X77751000Y-168401000D02*
G01*
X76649000Y-168401000D01*
X76649000Y-167599000D01*
X77751000Y-167599000D01*
X77751000Y-168401000D01*
G37*
G36*
X102801000Y-168401000D02*
G01*
X101699000Y-168401000D01*
X101699000Y-167599000D01*
X102801000Y-167599000D01*
X102801000Y-168401000D01*
G37*
G36*
X93851000Y-168401000D02*
G01*
X92749000Y-168401000D01*
X92749000Y-167599000D01*
X93851000Y-167599000D01*
X93851000Y-168401000D01*
G37*
G36*
X99301000Y-168401000D02*
G01*
X98199000Y-168401000D01*
X98199000Y-167599000D01*
X99301000Y-167599000D01*
X99301000Y-168401000D01*
G37*
G36*
X95801000Y-168401000D02*
G01*
X94699000Y-168401000D01*
X94699000Y-167599000D01*
X95801000Y-167599000D01*
X95801000Y-168401000D01*
G37*
G36*
X97551000Y-168401000D02*
G01*
X96449000Y-168401000D01*
X96449000Y-167599000D01*
X97551000Y-167599000D01*
X97551000Y-168401000D01*
G37*
G36*
X101051000Y-168401000D02*
G01*
X99949000Y-168401000D01*
X99949000Y-167599000D01*
X101051000Y-167599000D01*
X101051000Y-168401000D01*
G37*
G36*
X45751000Y-168401000D02*
G01*
X44649000Y-168401000D01*
X44649000Y-167599000D01*
X45751000Y-167599000D01*
X45751000Y-168401000D01*
G37*
G36*
X58751000Y-168401000D02*
G01*
X57649000Y-168401000D01*
X57649000Y-167599000D01*
X58751000Y-167599000D01*
X58751000Y-168401000D01*
G37*
G36*
X91051000Y-168401000D02*
G01*
X89949000Y-168401000D01*
X89949000Y-167599000D01*
X91051000Y-167599000D01*
X91051000Y-168401000D01*
G37*
G36*
X57151000Y-168401000D02*
G01*
X56049000Y-168401000D01*
X56049000Y-167599000D01*
X57151000Y-167599000D01*
X57151000Y-168401000D01*
G37*
G36*
X89451000Y-168401000D02*
G01*
X88349000Y-168401000D01*
X88349000Y-167599000D01*
X89451000Y-167599000D01*
X89451000Y-168401000D01*
G37*
G36*
X49151000Y-168401000D02*
G01*
X48049000Y-168401000D01*
X48049000Y-167599000D01*
X49151000Y-167599000D01*
X49151000Y-168401000D01*
G37*
G36*
X81451000Y-168401000D02*
G01*
X80349000Y-168401000D01*
X80349000Y-167599000D01*
X81451000Y-167599000D01*
X81451000Y-168401000D01*
G37*
G36*
X50751000Y-168401000D02*
G01*
X49649000Y-168401000D01*
X49649000Y-167599000D01*
X50751000Y-167599000D01*
X50751000Y-168401000D01*
G37*
G36*
X83051000Y-168401000D02*
G01*
X81949000Y-168401000D01*
X81949000Y-167599000D01*
X83051000Y-167599000D01*
X83051000Y-168401000D01*
G37*
G36*
X52351000Y-168401000D02*
G01*
X51249000Y-168401000D01*
X51249000Y-167599000D01*
X52351000Y-167599000D01*
X52351000Y-168401000D01*
G37*
G36*
X84651000Y-168401000D02*
G01*
X83549000Y-168401000D01*
X83549000Y-167599000D01*
X84651000Y-167599000D01*
X84651000Y-168401000D01*
G37*
G36*
X53951000Y-168401000D02*
G01*
X52849000Y-168401000D01*
X52849000Y-167599000D01*
X53951000Y-167599000D01*
X53951000Y-168401000D01*
G37*
G36*
X86251000Y-168401000D02*
G01*
X85149000Y-168401000D01*
X85149000Y-167599000D01*
X86251000Y-167599000D01*
X86251000Y-168401000D01*
G37*
G36*
X55551000Y-168401000D02*
G01*
X54449000Y-168401000D01*
X54449000Y-167599000D01*
X55551000Y-167599000D01*
X55551000Y-168401000D01*
G37*
G36*
X87851000Y-168401000D02*
G01*
X86749000Y-168401000D01*
X86749000Y-167599000D01*
X87851000Y-167599000D01*
X87851000Y-168401000D01*
G37*
G36*
X61951000Y-168401000D02*
G01*
X60849000Y-168401000D01*
X60849000Y-167599000D01*
X61951000Y-167599000D01*
X61951000Y-168401000D01*
G37*
G36*
X65551000Y-168401000D02*
G01*
X64449000Y-168401000D01*
X64449000Y-167599000D01*
X65551000Y-167599000D01*
X65551000Y-168401000D01*
G37*
G36*
X68751000Y-168401000D02*
G01*
X67649000Y-168401000D01*
X67649000Y-167599000D01*
X68751000Y-167599000D01*
X68751000Y-168401000D01*
G37*
G36*
X70351000Y-168401000D02*
G01*
X69249000Y-168401000D01*
X69249000Y-167599000D01*
X70351000Y-167599000D01*
X70351000Y-168401000D01*
G37*
G36*
X71951000Y-168401000D02*
G01*
X70849000Y-168401000D01*
X70849000Y-167599000D01*
X71951000Y-167599000D01*
X71951000Y-168401000D01*
G37*
G36*
X73551000Y-168401000D02*
G01*
X72449000Y-168401000D01*
X72449000Y-167599000D01*
X73551000Y-167599000D01*
X73551000Y-168401000D01*
G37*
G36*
X75151000Y-168401000D02*
G01*
X74049000Y-168401000D01*
X74049000Y-167599000D01*
X75151000Y-167599000D01*
X75151000Y-168401000D01*
G37*
G36*
X105051000Y-166701000D02*
G01*
X103949000Y-166701000D01*
X103949000Y-165899000D01*
X105051000Y-165899000D01*
X105051000Y-166701000D01*
G37*
G36*
X103551000Y-166701000D02*
G01*
X102449000Y-166701000D01*
X102449000Y-165899000D01*
X103551000Y-165899000D01*
X103551000Y-166701000D01*
G37*
G36*
X105051000Y-165201000D02*
G01*
X103949000Y-165201000D01*
X103949000Y-164399000D01*
X105051000Y-164399000D01*
X105051000Y-165201000D01*
G37*
G36*
X103551000Y-165201000D02*
G01*
X102449000Y-165201000D01*
X102449000Y-164399000D01*
X103551000Y-164399000D01*
X103551000Y-165201000D01*
G37*
G36*
X126266564Y-151989389D02*
G01*
X126457833Y-152068615D01*
X126457835Y-152068616D01*
X126629973Y-152183635D01*
X126776365Y-152330027D01*
X126891385Y-152502167D01*
X126970611Y-152693436D01*
X127011000Y-152896484D01*
X127011000Y-153103516D01*
X126970611Y-153306564D01*
X126891385Y-153497833D01*
X126891384Y-153497835D01*
X126776365Y-153669973D01*
X126629973Y-153816365D01*
X126457835Y-153931384D01*
X126457834Y-153931385D01*
X126457833Y-153931385D01*
X126266564Y-154010611D01*
X126063516Y-154051000D01*
X125856484Y-154051000D01*
X125653436Y-154010611D01*
X125462167Y-153931385D01*
X125462166Y-153931385D01*
X125462165Y-153931384D01*
X125290027Y-153816365D01*
X125143635Y-153669973D01*
X125028616Y-153497835D01*
X125028615Y-153497833D01*
X124949389Y-153306564D01*
X124909000Y-153103516D01*
X124909000Y-152896484D01*
X124949389Y-152693436D01*
X125028615Y-152502167D01*
X125143635Y-152330027D01*
X125290027Y-152183635D01*
X125462165Y-152068616D01*
X125462167Y-152068615D01*
X125653436Y-151989389D01*
X125856484Y-151949000D01*
X126063516Y-151949000D01*
X126266564Y-151989389D01*
G37*
G36*
X128806564Y-151989389D02*
G01*
X128997833Y-152068615D01*
X128997835Y-152068616D01*
X129169973Y-152183635D01*
X129316365Y-152330027D01*
X129431385Y-152502167D01*
X129510611Y-152693436D01*
X129551000Y-152896484D01*
X129551000Y-153103516D01*
X129510611Y-153306564D01*
X129431385Y-153497833D01*
X129431384Y-153497835D01*
X129316365Y-153669973D01*
X129169973Y-153816365D01*
X128997835Y-153931384D01*
X128997834Y-153931385D01*
X128997833Y-153931385D01*
X128806564Y-154010611D01*
X128603516Y-154051000D01*
X128396484Y-154051000D01*
X128193436Y-154010611D01*
X128002167Y-153931385D01*
X128002166Y-153931385D01*
X128002165Y-153931384D01*
X127830027Y-153816365D01*
X127683635Y-153669973D01*
X127568616Y-153497835D01*
X127568615Y-153497833D01*
X127489389Y-153306564D01*
X127449000Y-153103516D01*
X127449000Y-152896484D01*
X127489389Y-152693436D01*
X127568615Y-152502167D01*
X127683635Y-152330027D01*
X127830027Y-152183635D01*
X128002165Y-152068616D01*
X128002167Y-152068615D01*
X128193436Y-151989389D01*
X128396484Y-151949000D01*
X128603516Y-151949000D01*
X128806564Y-151989389D01*
G37*
M02*
