M48
; DRILL file {KiCad (5.1.5-0-10_14)} date Sunday, 10 May 2020 at 16:42:03
; FORMAT={-:-/ absolute / inch / decimal}
; #@! TF.CreationDate,2020-05-10T16:42:03+01:00
; #@! TF.GenerationSoftware,Kicad,Pcbnew,(5.1.5-0-10_14)
FMAT,2
INCH
T1C0.0157
T2C0.0197
T3C0.0433
%
G90
G05
T1
X1.7323Y-4.4488
X1.7323Y-4.5669
X1.7323Y-4.685
X1.7323Y-4.8031
X1.7323Y-4.9213
X1.7323Y-5.0394
X1.7323Y-5.1575
X1.7323Y-5.2756
X1.7323Y-5.3346
X1.7323Y-5.3937
X1.7323Y-5.5118
X1.7323Y-5.6299
X1.7323Y-5.748
X1.7323Y-5.8661
X1.7323Y-5.9843
X1.7323Y-6.1024
X1.7323Y-6.2205
X1.7323Y-6.5551
X1.7323Y-6.6142
X1.7717Y-4.3504
X1.811Y-4.3504
X1.811Y-4.4488
X1.811Y-4.5669
X1.811Y-4.685
X1.811Y-4.8031
X1.811Y-4.9213
X1.811Y-5.0394
X1.811Y-5.1575
X1.811Y-5.2165
X1.811Y-5.2756
X1.811Y-5.3937
X1.811Y-5.5118
X1.811Y-5.6299
X1.811Y-5.748
X1.811Y-5.8661
X1.811Y-5.9843
X1.811Y-6.1024
X1.811Y-6.2205
X1.811Y-6.2795
X1.811Y-6.5748
X1.8504Y-4.311
X1.8622Y-7.0433
X1.8622Y-7.0866
X1.8661Y-6.748
X1.874Y-6.7008
X1.8898Y-4.311
X1.8898Y-4.4488
X1.8898Y-4.5669
X1.8898Y-4.685
X1.8898Y-4.8031
X1.8898Y-5.0394
X1.8898Y-5.0984
X1.8898Y-5.1575
X1.8898Y-5.2756
X1.8898Y-5.3937
X1.8898Y-5.5118
X1.8898Y-5.6299
X1.8898Y-5.748
X1.8898Y-5.8661
X1.8898Y-5.9843
X1.8898Y-6.1024
X1.8898Y-6.1614
X1.8898Y-6.4764
X1.8898Y-4.9213
X1.8898Y-6.2205
X1.8898Y-6.5354
X1.8976Y-6.8063
X1.9055Y-7.0866
X1.9094Y-7.0433
X1.9134Y-6.7402
X1.9291Y-4.2717
X1.9291Y-6.8425
X1.9528Y-6.7795
X1.9685Y-4.2717
X1.9685Y-4.4488
X1.9685Y-4.5669
X1.9685Y-4.685
X1.9685Y-4.8031
X1.9685Y-4.9213
X1.9685Y-4.9803
X1.9685Y-5.0394
X1.9685Y-5.1575
X1.9685Y-5.2756
X1.9685Y-5.3937
X1.9685Y-5.5118
X1.9685Y-5.6299
X1.9685Y-5.748
X1.9685Y-5.8661
X1.9685Y-5.9843
X1.9685Y-6.0433
X1.9685Y-6.1024
X1.9685Y-6.2205
X1.9685Y-6.437
X1.9685Y-6.4961
X1.9685Y-6.874
X1.9843Y-6.8189
X2.0079Y-4.2323
X2.0472Y-4.2323
X2.0472Y-4.4488
X2.0472Y-4.5669
X2.0472Y-4.685
X2.0472Y-4.8031
X2.0472Y-4.8622
X2.0472Y-4.9213
X2.0472Y-5.0394
X2.0472Y-5.2756
X2.0472Y-5.3937
X2.0472Y-5.5118
X2.0472Y-5.6299
X2.0472Y-5.748
X2.0472Y-5.8661
X2.0472Y-5.9252
X2.0472Y-5.9843
X2.0472Y-6.1024
X2.0472Y-6.2205
X2.0472Y-6.3976
X2.0472Y-6.4567
X2.0477Y-5.158
X2.0866Y-4.1929
X2.126Y-4.1929
X2.126Y-4.4488
X2.126Y-4.5669
X2.126Y-4.685
X2.126Y-4.7441
X2.126Y-4.8031
X2.126Y-4.9213
X2.126Y-5.0394
X2.126Y-5.1575
X2.126Y-5.2756
X2.126Y-5.3937
X2.126Y-5.5118
X2.126Y-5.6299
X2.126Y-5.748
X2.126Y-5.8071
X2.126Y-5.8661
X2.126Y-5.9843
X2.126Y-6.1024
X2.126Y-6.2205
X2.126Y-6.3583
X2.126Y-6.4173
X2.1654Y-4.1535
X2.2047Y-4.1535
X2.2047Y-4.4488
X2.2047Y-4.5669
X2.2047Y-4.626
X2.2047Y-4.685
X2.2047Y-4.8031
X2.2047Y-4.9213
X2.2047Y-5.0394
X2.2047Y-5.1575
X2.2047Y-5.2756
X2.2047Y-5.3937
X2.2047Y-5.5118
X2.2047Y-5.689
X2.2047Y-5.748
X2.2047Y-5.8661
X2.2047Y-5.9843
X2.2047Y-6.1024
X2.2047Y-6.2205
X2.2047Y-6.3238
X2.2047Y-6.378
X2.2047Y-5.6299
X2.2362Y-6.8268
X2.2441Y-4.1142
X2.252Y-6.7717
X2.272Y-7.0429
X2.2835Y-4.1142
X2.2835Y-4.4488
X2.2835Y-4.5079
X2.2835Y-4.5669
X2.2835Y-4.685
X2.2835Y-4.8031
X2.2835Y-4.9213
X2.2835Y-5.0394
X2.2835Y-5.1575
X2.2835Y-5.2756
X2.2835Y-5.4528
X2.2835Y-5.5118
X2.2835Y-5.5709
X2.2835Y-5.6299
X2.2835Y-5.748
X2.2835Y-5.8661
X2.2835Y-5.9843
X2.2835Y-6.1024
X2.2835Y-6.2205
X2.2835Y-6.3386
X2.3232Y-7.0429
X2.3622Y-4.4488
X2.3622Y-4.5669
X2.3622Y-4.685
X2.3622Y-4.8031
X2.3622Y-4.9213
X2.3622Y-5.0394
X2.3622Y-5.1575
X2.3622Y-5.2756
X2.3622Y-5.3346
X2.3622Y-5.5118
X2.3622Y-5.6299
X2.3622Y-5.748
X2.3622Y-5.8661
X2.3622Y-5.9843
X2.3622Y-6.1024
X2.3622Y-6.2205
X2.3622Y-6.6142
X2.4016Y-4.3504
X2.4409Y-4.3504
X2.4409Y-4.4488
X2.4409Y-4.5669
X2.4409Y-4.685
X2.4409Y-4.8031
X2.4409Y-4.9213
X2.4409Y-5.0394
X2.4409Y-5.1575
X2.4409Y-5.2165
X2.4409Y-5.2756
X2.4409Y-5.3346
X2.4409Y-5.3937
X2.4409Y-5.5118
X2.4409Y-5.6299
X2.4409Y-5.748
X2.4409Y-5.8661
X2.4409Y-5.9843
X2.4409Y-6.1024
X2.4409Y-6.2205
X2.4409Y-6.2795
X2.4409Y-6.5748
X2.4768Y-7.0429
X2.4803Y-4.311
X2.4961Y-6.6929
X2.5Y-6.7913
X2.5118Y-6.8346
X2.5197Y-4.311
X2.5197Y-4.4488
X2.5197Y-4.5669
X2.5197Y-4.685
X2.5197Y-4.8031
X2.5197Y-4.9213
X2.5197Y-5.0394
X2.5197Y-5.0984
X2.5197Y-5.1575
X2.5197Y-5.2756
X2.5197Y-5.3937
X2.5197Y-5.5118
X2.5197Y-5.6299
X2.5197Y-5.748
X2.5197Y-5.8661
X2.5197Y-5.9843
X2.5197Y-6.1024
X2.5197Y-6.1614
X2.5197Y-6.2205
X2.5197Y-6.5354
X2.5276Y-6.7323
X2.5276Y-7.0394
X2.5433Y-6.8819
X2.5591Y-4.2717
X2.5591Y-6.7717
X2.5906Y-6.811
X2.5906Y-6.8583
X2.5984Y-4.2717
X2.5984Y-4.4488
X2.5984Y-4.5669
X2.5984Y-4.685
X2.5984Y-4.8031
X2.5984Y-4.9213
X2.5984Y-4.9803
X2.5984Y-5.0394
X2.5984Y-5.1575
X2.5984Y-5.2756
X2.5984Y-5.3937
X2.5984Y-5.5089
X2.5984Y-5.6299
X2.5984Y-5.748
X2.5984Y-5.8661
X2.5984Y-5.9843
X2.5984Y-6.0433
X2.5984Y-6.1024
X2.5984Y-6.2205
X2.5984Y-6.4961
X2.6378Y-4.2323
X2.6772Y-4.2323
X2.6772Y-4.4488
X2.6772Y-4.5669
X2.6772Y-4.685
X2.6772Y-4.8031
X2.6772Y-4.8622
X2.6772Y-4.9213
X2.6772Y-5.0394
X2.6772Y-5.1575
X2.6772Y-5.2756
X2.6772Y-5.3937
X2.6772Y-5.5118
X2.6772Y-5.6299
X2.6772Y-5.748
X2.6772Y-5.8661
X2.6772Y-5.9252
X2.6772Y-5.9843
X2.6772Y-6.1024
X2.6772Y-6.2205
X2.6772Y-6.4567
X2.7165Y-4.1929
X2.7559Y-4.1929
X2.7559Y-4.4488
X2.7559Y-4.685
X2.7559Y-4.7441
X2.7559Y-4.8031
X2.7559Y-4.9213
X2.7559Y-5.0394
X2.7559Y-5.1575
X2.7559Y-5.2756
X2.7559Y-5.3937
X2.7559Y-5.5118
X2.7559Y-5.6299
X2.7559Y-5.748
X2.7559Y-5.8071
X2.7559Y-5.8661
X2.7559Y-5.9843
X2.7559Y-6.1024
X2.7559Y-6.2205
X2.7559Y-6.4173
X2.7559Y-4.5669
X2.7953Y-4.1535
X2.8346Y-4.1535
X2.8346Y-4.4488
X2.8346Y-4.5669
X2.8346Y-4.626
X2.8346Y-4.685
X2.8346Y-4.8031
X2.8346Y-4.9213
X2.8346Y-5.0394
X2.8346Y-5.1575
X2.8346Y-5.2756
X2.8346Y-5.3937
X2.8346Y-5.5118
X2.8346Y-5.6299
X2.8346Y-5.689
X2.8346Y-5.748
X2.8346Y-5.8661
X2.8346Y-5.9843
X2.8346Y-6.1024
X2.8346Y-6.2205
X2.8346Y-6.378
X2.874Y-4.1142
X2.874Y-6.8799
X2.874Y-6.9528
X2.8937Y-7.0394
X2.9134Y-4.1142
X2.9134Y-4.4488
X2.9134Y-4.5079
X2.9134Y-4.5669
X2.9134Y-4.685
X2.9134Y-4.8031
X2.9134Y-4.9213
X2.9134Y-5.0394
X2.9134Y-5.1575
X2.9134Y-5.2756
X2.9134Y-5.4528
X2.9134Y-5.5118
X2.9134Y-5.5709
X2.9134Y-5.6299
X2.9134Y-5.748
X2.9134Y-5.8661
X2.9134Y-5.9843
X2.9134Y-6.1024
X2.9134Y-6.2205
X2.9134Y-6.3386
X2.9409Y-7.0394
X2.9921Y-4.4488
X2.9921Y-4.5669
X2.9921Y-4.685
X2.9921Y-4.8031
X2.9921Y-4.9213
X2.9921Y-5.0394
X2.9921Y-5.1575
X2.9921Y-5.2756
X2.9921Y-5.3346
X2.9921Y-5.5118
X2.9921Y-5.6299
X2.9921Y-5.748
X2.9921Y-5.8661
X2.9921Y-5.9843
X2.9921Y-6.1024
X2.9921Y-6.2205
X2.9921Y-6.6142
X2.9947Y-5.4171
X3.0315Y-4.3504
X3.0709Y-4.3504
X3.0709Y-4.4488
X3.0709Y-4.5669
X3.0709Y-4.685
X3.0709Y-4.8031
X3.0709Y-4.9213
X3.0709Y-5.0394
X3.0709Y-5.1575
X3.0709Y-5.2165
X3.0709Y-5.2756
X3.0709Y-5.3346
X3.0709Y-5.3937
X3.0709Y-5.5118
X3.0709Y-5.6299
X3.0709Y-5.748
X3.0709Y-5.8661
X3.0709Y-5.9843
X3.0709Y-6.1024
X3.0709Y-6.2205
X3.0709Y-6.2795
X3.0709Y-6.5748
X3.1102Y-4.311
X3.1142Y-7.0394
X3.1339Y-6.685
X3.1496Y-4.311
X3.1496Y-4.4488
X3.1496Y-4.5669
X3.1496Y-4.685
X3.1496Y-4.8031
X3.1496Y-4.9213
X3.1496Y-5.0394
X3.1496Y-5.0984
X3.1496Y-5.1575
X3.1496Y-5.2756
X3.1496Y-5.3937
X3.1496Y-5.5118
X3.1496Y-5.6299
X3.1496Y-5.748
X3.1496Y-5.8661
X3.1496Y-5.9843
X3.1496Y-6.1024
X3.1496Y-6.1614
X3.1496Y-6.2205
X3.1496Y-6.5354
X3.1575Y-6.7795
X3.1575Y-7.0394
X3.1654Y-6.7165
X3.189Y-4.2717
X3.189Y-6.8189
X3.1969Y-6.748
X3.2126Y-6.8583
X3.2283Y-4.2717
X3.2283Y-4.4488
X3.2283Y-4.5669
X3.2283Y-4.685
X3.2283Y-4.8031
X3.2283Y-4.9213
X3.2283Y-4.9803
X3.2283Y-5.0394
X3.2283Y-5.1575
X3.2283Y-5.2756
X3.2283Y-5.3937
X3.2283Y-5.5118
X3.2283Y-5.6299
X3.2283Y-5.748
X3.2283Y-5.8661
X3.2283Y-5.9843
X3.2283Y-6.0433
X3.2283Y-6.1024
X3.2283Y-6.2205
X3.2283Y-6.4961
X3.2283Y-6.7795
X3.2441Y-6.8189
X3.2677Y-4.2323
X3.3071Y-4.2323
X3.3071Y-4.4488
X3.3071Y-4.5669
X3.3071Y-4.685
X3.3071Y-4.8031
X3.3071Y-4.8622
X3.3071Y-4.9213
X3.3071Y-5.0394
X3.3071Y-5.1575
X3.3071Y-5.2756
X3.3071Y-5.3937
X3.3071Y-5.5118
X3.3071Y-5.6299
X3.3071Y-5.748
X3.3071Y-5.8661
X3.3071Y-5.9252
X3.3071Y-5.9843
X3.3071Y-6.1024
X3.3071Y-6.2205
X3.3071Y-6.4567
X3.3465Y-4.1929
X3.3858Y-4.1929
X3.3858Y-4.4488
X3.3858Y-4.5669
X3.3858Y-4.685
X3.3858Y-4.7441
X3.3858Y-4.8031
X3.3858Y-4.9213
X3.3858Y-5.0394
X3.3858Y-5.1575
X3.3858Y-5.2756
X3.3858Y-5.3937
X3.3858Y-5.5118
X3.3858Y-5.6299
X3.3858Y-5.748
X3.3858Y-5.8071
X3.3858Y-5.8661
X3.3858Y-5.9843
X3.3858Y-6.1024
X3.3858Y-6.2205
X3.3858Y-6.4173
X3.4252Y-4.1535
X3.4646Y-4.1535
X3.4646Y-4.4488
X3.4646Y-4.5669
X3.4646Y-4.626
X3.4646Y-4.685
X3.4646Y-4.8031
X3.4646Y-4.9213
X3.4646Y-5.0394
X3.4646Y-5.1575
X3.4646Y-5.2756
X3.4646Y-5.3937
X3.4646Y-5.5118
X3.4646Y-5.6299
X3.4646Y-5.689
X3.4646Y-5.748
X3.4646Y-5.8661
X3.4646Y-5.9843
X3.4646Y-6.1024
X3.4646Y-6.2205
X3.4646Y-6.378
X3.5039Y-4.1142
X3.5118Y-7.0394
X3.5276Y-6.8583
X3.5335Y-6.811
X3.5433Y-4.1142
X3.5433Y-4.4488
X3.5433Y-4.5079
X3.5433Y-4.5669
X3.5433Y-4.685
X3.5433Y-4.8031
X3.5433Y-4.9213
X3.5433Y-5.0394
X3.5433Y-5.1575
X3.5433Y-5.2756
X3.5433Y-5.4528
X3.5433Y-5.5118
X3.5433Y-5.5709
X3.5433Y-5.6299
X3.5433Y-5.748
X3.5433Y-5.8661
X3.5433Y-5.9843
X3.5433Y-6.1024
X3.5433Y-6.2205
X3.5433Y-6.3386
X3.5669Y-7.0433
X3.622Y-4.4488
X3.622Y-4.5669
X3.622Y-4.685
X3.622Y-4.8031
X3.622Y-4.9213
X3.622Y-5.0394
X3.622Y-5.1575
X3.622Y-5.2756
X3.622Y-5.3346
X3.622Y-5.5118
X3.622Y-5.6299
X3.622Y-5.748
X3.622Y-5.8661
X3.622Y-5.9843
X3.622Y-6.1024
X3.622Y-6.2205
X3.622Y-6.6142
X3.6614Y-4.3504
X3.7008Y-4.3504
X3.7008Y-4.4488
X3.7008Y-4.5669
X3.7008Y-4.685
X3.7008Y-4.8031
X3.7008Y-4.9213
X3.7008Y-5.0394
X3.7008Y-5.1575
X3.7008Y-5.2165
X3.7008Y-5.2756
X3.7008Y-5.3346
X3.7008Y-5.3937
X3.7008Y-5.5118
X3.7008Y-5.6299
X3.7008Y-5.748
X3.7008Y-5.8661
X3.7008Y-5.9843
X3.7008Y-6.1024
X3.7008Y-6.2205
X3.7008Y-6.2795
X3.7008Y-6.5748
X3.7402Y-4.311
X3.7402Y-6.752
X3.7634Y-6.8429
X3.7756Y-7.0433
X3.7795Y-4.311
X3.7795Y-4.4488
X3.7795Y-4.5669
X3.7795Y-4.685
X3.7795Y-4.8031
X3.7795Y-4.9213
X3.7795Y-5.0394
X3.7795Y-5.0984
X3.7795Y-5.1575
X3.7795Y-5.2756
X3.7795Y-5.3937
X3.7795Y-5.5118
X3.7795Y-5.6299
X3.7795Y-5.748
X3.7795Y-5.8661
X3.7795Y-5.9843
X3.7795Y-6.1024
X3.7795Y-6.1614
X3.7795Y-6.2205
X3.7795Y-6.5354
X3.7874Y-6.7165
X3.811Y-6.748
X3.811Y-6.8583
X3.8189Y-4.2717
X3.8346Y-6.7795
X3.8386Y-7.0394
X3.8583Y-4.2717
X3.8583Y-4.4488
X3.8583Y-4.5669
X3.8583Y-4.685
X3.8583Y-4.8031
X3.8583Y-4.9213
X3.8583Y-4.9803
X3.8583Y-5.0394
X3.8583Y-5.1575
X3.8583Y-5.2756
X3.8583Y-5.3937
X3.8583Y-5.5118
X3.8583Y-5.6299
X3.8583Y-5.748
X3.8583Y-5.8661
X3.8583Y-5.9843
X3.8583Y-6.0433
X3.8583Y-6.1024
X3.8583Y-6.2205
X3.8583Y-6.4961
X3.8583Y-6.8189
X3.8583Y-6.874
X3.8976Y-4.2323
X3.937Y-4.2323
X3.937Y-4.4488
X3.937Y-4.5669
X3.937Y-4.685
X3.937Y-4.8031
X3.937Y-4.8622
X3.937Y-4.9213
X3.937Y-5.0394
X3.937Y-5.1575
X3.937Y-5.2756
X3.937Y-5.3937
X3.937Y-5.5118
X3.937Y-5.6299
X3.937Y-5.748
X3.937Y-5.8661
X3.937Y-5.9252
X3.937Y-5.9843
X3.937Y-6.1024
X3.937Y-6.2205
X3.937Y-6.4567
X3.9764Y-4.1929
X4.0157Y-4.1929
X4.0157Y-4.4488
X4.0157Y-4.5669
X4.0157Y-4.685
X4.0157Y-4.7441
X4.0157Y-4.8031
X4.0157Y-4.9213
X4.0157Y-5.0394
X4.0157Y-5.1575
X4.0157Y-5.2756
X4.0157Y-5.3937
X4.0157Y-5.5118
X4.0157Y-5.6299
X4.0157Y-5.748
X4.0157Y-5.8071
X4.0157Y-5.8661
X4.0157Y-5.9843
X4.0157Y-6.1024
X4.0157Y-6.2205
X4.0157Y-6.4173
X4.0551Y-4.1535
X4.0945Y-4.1535
X4.0945Y-4.4488
X4.0945Y-4.5669
X4.0945Y-4.626
X4.0945Y-4.685
X4.0945Y-4.8031
X4.0945Y-4.9213
X4.0945Y-5.0394
X4.0945Y-5.1575
X4.0945Y-5.2756
X4.0945Y-5.3937
X4.0945Y-5.5118
X4.0945Y-5.6299
X4.0945Y-5.689
X4.0945Y-5.748
X4.0945Y-5.8661
X4.0945Y-5.9843
X4.0945Y-6.1024
X4.0945Y-6.2205
X4.0945Y-6.378
X4.1181Y-6.9606
X4.1339Y-4.1142
X4.1626Y-6.7429
X4.1654Y-6.7913
X4.1732Y-4.1142
X4.1732Y-4.4488
X4.1732Y-4.5669
X4.1732Y-4.685
X4.1732Y-4.8031
X4.1732Y-4.9213
X4.1732Y-5.0394
X4.1732Y-5.1575
X4.1732Y-5.2756
X4.1732Y-5.3937
X4.1732Y-5.5118
X4.1732Y-5.5709
X4.1732Y-5.6299
X4.1732Y-5.748
X4.1732Y-5.8661
X4.1732Y-5.9843
X4.1732Y-6.1024
X4.1732Y-6.2205
X4.1732Y-6.3386
X4.187Y-6.6526
X4.1929Y-4.1929
X4.1929Y-4.311
X4.1929Y-4.3898
X4.2126Y-6.4961
X4.2126Y-6.5354
X4.2126Y-6.5748
X4.2126Y-6.7421
X4.2323Y-4.1535
X4.2323Y-4.2323
X4.2323Y-4.3504
X4.2362Y-6.6614
X4.2441Y-6.9409
X4.252Y-5.8661
X4.2756Y-6.3386
X4.2756Y-6.4173
X4.2756Y-6.4567
X4.2913Y-5.5315
X4.2913Y-5.5709
X4.2913Y-5.6102
X4.2913Y-5.6496
X4.2913Y-5.689
X4.2913Y-5.7283
X4.2913Y-5.7677
X4.2913Y-5.937
X4.2992Y-6.0315
X4.3081Y-4.3698
X4.311Y-4.4685
X4.311Y-6.6811
X4.3126Y-4.6276
X4.3126Y-4.9394
X4.3228Y-5.8504
X4.3228Y-5.9055
X4.3701Y-6.6929
X4.3937Y-6.94
X4.3976Y-6.8898
X4.4016Y-5.5591
X4.4016Y-6.2835
X4.4291Y-4.2717
X4.4331Y-5.5984
X4.4587Y-4.3504
X4.4724Y-4.1181
X4.4882Y-4.4488
X4.4882Y-4.6654
X4.4882Y-4.7244
X4.4882Y-4.8031
X4.5039Y-6.4331
X4.6024Y-6.2874
X4.6024Y-6.8819
X4.6024Y-6.9291
X4.6142Y-6.627
X4.622Y-6.4331
X4.626Y-4.2717
X4.6535Y-4.1496
X4.6654Y-4.3504
X4.6693Y-5.9528
X4.6693Y-6.0079
X4.6772Y-5.8976
X4.6772Y-6.063
X4.685Y-4.4488
X4.7441Y-5.7087
X4.7441Y-5.748
X4.7441Y-5.7874
X4.748Y-4.1496
X4.7835Y-5.7087
X4.7835Y-5.748
X4.7835Y-5.7874
X4.7835Y-6.8701
X4.7992Y-6.374
X4.811Y-6.5906
X4.8228Y-4.2717
X4.8268Y-6.2008
X4.8331Y-4.6276
X4.8425Y-6.4567
X4.8504Y-4.1417
X4.8504Y-5.5157
X4.8524Y-6.8898
X4.8622Y-4.3307
X4.8701Y-4.6575
X4.8819Y-4.4488
X4.9173Y-4.8583
X4.9173Y-6.5906
X4.9213Y-4.686
X4.9213Y-4.7323
X4.9213Y-6.7126
X4.9317Y-5.4671
X4.9843Y-6.2874
X4.9921Y-6.4646
X4.9961Y-4.7874
X5.0Y-4.5079
X5.004Y-6.4045
X5.0118Y-6.563
X5.0285Y-4.5778
X5.0394Y-5.1575
X5.0945Y-4.7717
X5.0945Y-5.0
X5.1181Y-4.9606
X5.1181Y-5.0394
X5.1181Y-6.7717
X5.1378Y-4.7008
X5.1417Y-5.0
X5.1496Y-6.622
X5.1575Y-4.3898
X5.1575Y-4.4291
X5.1575Y-4.4685
X5.1575Y-4.5079
X5.1575Y-4.5472
X5.1969Y-4.3898
X5.1969Y-4.4291
X5.1969Y-4.4685
X5.1969Y-4.5079
X5.1969Y-4.5472
X5.2362Y-4.3898
X5.2362Y-4.4291
X5.2362Y-4.4685
X5.2362Y-4.5079
X5.2362Y-4.5472
T2
X5.1673Y-7.0472
X5.2224Y-7.0472
T3
X4.9591Y-6.0236
X5.0591Y-6.0236
T0
M30
